<svg version="1.1" id="Livello_1" xmlns="http://www.w3.org/2000/svg" x="0" y="0" viewBox="0 0 1175.9 423.5" xml:space="preserve"><style>.st0{fill:#fff}.st1,.st2{fill:none;stroke:#fff;stroke-width:1.2898;stroke-miterlimit:2.6131}.st2{stroke-width:1.29;stroke-linecap:round;stroke-linejoin:round;stroke-miterlimit:2.613}</style><path class="st0" d="M89.4 327.4c2.3 0 4-.3 5.1-.8 1.7-.9 2.5-2.5 2.5-5v-40.2c0-2.5-.8-4-2.3-5-.9-.5-2.6-.8-5.1-.9v-2.2h29v2.2c-2.6.2-4.3.5-5.3.9-1.6.8-2.5 2.5-2.5 5v40.2c0 2.3.6 3.9 1.9 4.7 1.2.8 3.3 1.2 5.7 1.2v2.2h-29v-2.3zm33.8-17.2h2.5c1.4 6.2 3.4 10.7 6.4 13.5 3 2.8 6.4 4.2 10.1 4.2 3.7 0 6.4-.9 7.9-3 1.6-1.9 2.3-4 2.3-6.1 0-2.5-.8-4.5-2.5-6.1-1.1-1.1-3.3-2.3-6.5-4l-5.3-2.6c-5.3-2.6-9-5.3-11.2-7.9s-3.3-5.7-3.3-9.6c0-4 1.4-7.9 4.3-11.3 2.8-3.6 7.3-5.3 13.2-5.3 3 0 5.9.5 8.7 1.4 2.8.9 4.3 1.4 4.8 1.4.9 0 1.6-.3 1.9-.8.3-.5.6-1.2.8-2h2.5v18h-2.3c-1.1-4.2-3-7.8-5.7-10.9-2.8-3.1-6.1-4.5-9.9-4.5-2.8 0-5 .8-6.5 2.3-1.6 1.6-2.3 3.4-2.3 5.6 0 2.6.8 4.7 2.2 5.9 1.4 1.4 4.8 3.3 9.9 5.9l6.2 3.1c2.8 1.4 5 3 6.5 4.7 3.1 3.1 4.5 7 4.5 11.5 0 4.2-1.6 8.2-4.8 11.8-3.3 3.7-8.5 5.6-15.7 5.6-1.7 0-3.3-.2-5-.5-1.7-.3-3.4-.8-5-1.4l-1.6-.6c-.3-.2-.8-.2-1.1-.3-.3 0-.6-.2-.9-.2-.8 0-1.4.3-1.7.8-.3.5-.6 1.2-.8 2.2h-2.5v-20.8h-.1zm44.7 17.2c2.8-.2 4.5-.8 5.4-1.7.9-.9 1.4-3 1.4-5.9V283c0-3.1-.5-5.1-1.4-5.9-.9-.8-2.8-1.4-5.4-1.7v-2.2h26.7c7.1 0 12.4 1.1 16.1 3.4s5.6 6.2 5.6 11.8c0 2.8-.8 5.3-2.2 7.8-1.4 2.3-3.9 4.3-7.1 5.7-2.5 1.1-5 1.7-7.6 1.9-2.5.2-6.2.3-11.2.3v15.5c0 3.1.5 5.1 1.6 6.1 1.1.9 3 1.4 5.7 1.6v2.2H168v-2h-.1zm30.2-27.6c2.6-1.7 3.9-5.3 3.9-10.9 0-3.7-.6-6.8-1.9-9.2-1.2-2.3-3.7-3.6-7.3-3.6-1.7 0-2.8.2-3.6.6-.8.5-1.1 1.1-1.1 2.3v22.4c5 .1 8.4-.5 10-1.6zm20.6 27.6c2.8-.2 4.7-.6 5.7-1.6s1.6-3 1.6-6.1V283c0-3.3-.6-5.3-1.9-6.2-.8-.6-2.6-1.1-5.4-1.4v-2.2h26.7c5.6 0 10.1.6 13.5 1.7 6.7 2.3 9.9 6.5 9.9 12.7 0 4.5-1.7 8.1-5.3 10.7-2.6 2-5.4 3.3-8.5 3.7l17.7 23.6c.5.6.9 1.1 1.6 1.2.5.2 1.1.3 1.9.3v2h-17.4l-19.4-25.9v16.1c0 3 .5 4.8 1.4 5.9.9 1.1 3 1.6 5.7 1.7v2.2h-27.8v-1.7zm32.3-28.7c2.3-1.4 3.6-4.8 3.6-10.1 0-3.3-.5-5.7-1.4-7.6-1.6-3.1-4.3-4.8-8.4-4.8-2.2 0-3.7.3-4.3.8-.6.6-1.1 1.4-1.1 2.8v21.3c5.4-.2 9.3-1 11.6-2.4zm27.8 28.7c2-.2 3.6-1.1 4.8-2.6.8-1.1 1.9-3.4 3.4-7l18.5-45.5h2.3l18.5 43.6c2 4.8 3.6 8.1 4.7 9.5 1.1 1.4 2.5 2 4.3 2v2.2h-26.9v-2.2c2.6-.2 4.5-.3 5.3-.6.8-.3 1.2-1.2 1.2-2.6 0-.6-.2-1.6-.6-3-.3-.8-.6-1.7-1.1-2.8l-2.2-5h-18.6c-1.2 3.3-2 5.4-2.3 6.4-.8 2.2-1.1 3.7-1.1 4.7 0 1.2.8 2 2.3 2.6.9.3 2.3.5 4.2.5v2.2h-16.9v-2.3h.2zm31.2-17.3l-8.1-19.3h-.6l-7.5 19.3H310zM13.4 374.8c1.1-.2 1.9-.3 2.2-.5.3-.3.5-.9.5-2v-12.6c0-1.1-.2-1.7-.5-2-.3-.3-.9-.6-2.2-.8v-.5h8.4v.5c-1.1 0-1.9.3-2.2.5-.3.3-.5.9-.5 2V372c0 1.1.2 1.7.5 2 .3.3 1.1.5 2.2.5v.5h-8.4v-.2zm10.6-3.9h.5c.2 1.1.5 1.9.9 2.5.6 1.1 1.6 1.6 2.8 1.6.6 0 1.2-.2 1.7-.6.5-.3.6-.9.6-1.6 0-.5-.2-.8-.3-1.1-.2-.3-.6-.8-1.2-1.1l-1.6-.9c-1.1-.6-2-1.2-2.5-1.9-.5-.6-.8-1.4-.8-2.2 0-1.1.3-1.9 1.1-2.5.8-.6 1.7-.9 2.8-.9.5 0 1.1.2 1.6.3l.9.3h.3l.2-.2h.3l.2 3.9H31c-.2-.9-.5-1.6-.8-2-.6-.9-1.4-1.4-2.5-1.4-.6 0-1.1.2-1.6.6-.3.5-.6.9-.6 1.4 0 .8.6 1.6 1.9 2.3l1.9.9c2 1.1 3 2.3 3 3.7 0 1.1-.5 2-1.2 2.6-.8.6-1.9 1.1-3.3 1.1-.6 0-1.2-.2-1.9-.3-.8-.2-1.1-.3-1.2-.3s-.2 0-.3.2c-.2 0-.2.2-.2.3H24v-4.7zm16.8-8.4v.9H38v7.9c0 .8 0 1.2.2 1.6.2.6.6.9 1.2.9.3 0 .6-.2.9-.3.3-.2.5-.5.8-.8l.3.3-.3.5c-.5.6-.9 1.1-1.6 1.4-.5.3-1.1.5-1.6.5-1.1 0-1.9-.5-2.2-1.4-.2-.5-.3-1.2-.3-2.2v-8.4h-1.6s-.2 0-.2-.2v-.2s.2-.2.5-.3c.6-.5 1.1-.9 1.4-1.2.3-.3.9-1.2 2-2.6h.2v3.6h3zM42 375c.9-.2 1.6-.3 1.9-.5.3-.3.3-.9.3-2v-6.7c0-.6 0-1.1-.2-1.2-.2-.3-.5-.6-.9-.6h-.3c-.2 0-.3.2-.8.2v-.5l.6-.2c1.6-.5 2.8-.9 3.4-1.2.3-.2.5-.2.5-.2v10.1c0 1.1.2 1.7.3 2 .3.3.8.5 1.7.5v.5h-6.7v-.2h.2zm2.2-18.7c.3-.3.6-.5 1.1-.5s.8.2 1.1.5c.3.3.5.6.5 1.1s-.2.8-.5 1.1c-.3.3-.6.5-1.1.5-.5 0-.8-.2-1.1-.5-.3-.3-.5-.6-.5-1.1s.2-.8.5-1.1zm12.3 6.2v.9h-2.8v7.9c0 .8 0 1.2.2 1.6.2.6.6.9 1.2.9.3 0 .6-.2.9-.3.3-.2.5-.5.8-.8l.3.3-.3.5c-.5.6-.9 1.1-1.6 1.4-.5.3-1.1.5-1.6.5-1.1 0-1.9-.5-2.2-1.4-.2-.5-.3-1.2-.3-2.2v-8.4h-1.6s-.2 0-.2-.2v-.2s.2-.2.5-.3c.6-.5 1.1-.9 1.4-1.2.3-.3.9-1.2 2-2.6h.2v3.6h3zm5.1-.1v8.9c0 .6.2 1.1.3 1.6.3.8.9 1.1 1.9 1.1.6 0 1.2-.2 1.9-.6.3-.2.6-.6 1.1-.9v-7.6c0-.8-.2-1.2-.5-1.4-.3-.2-.8-.3-1.7-.5v-.5H69v9.8c0 .6.2 1.1.3 1.2.2.3.8.3 1.4.3v.5c-.5.2-.9.3-1.1.3-.3 0-.6.2-1.2.3-.3.2-.8.3-1.6.6h-.2v-2.3c-.6.8-1.2 1.2-1.7 1.7-.8.6-1.6.8-2.5.8-.8 0-1.6-.3-2.3-.9S59 373.2 59 372v-7.1c0-.8-.2-1.2-.5-1.4-.2-.2-.6-.3-1.2-.3v-.5h4.2l.1-.3zm17.1.1v.9h-2.8v7.9c0 .8 0 1.2.2 1.6.2.6.6.9 1.2.9.3 0 .6-.2.9-.3.3-.2.5-.5.8-.8l.3.3-.3.5c-.5.6-.9 1.1-1.6 1.4-.5.3-1.1.5-1.6.5-1.1 0-1.9-.5-2.2-1.4-.2-.5-.3-1.2-.3-2.2v-8.4h-1.6s-.2 0-.2-.2v-.2s.2-.2.5-.3c.6-.5 1.1-.9 1.4-1.2.3-.3.9-1.2 2-2.6h.2v3.6h3zm3.1 1.7c1.2-1.2 2.6-1.9 4.5-1.9s3.4.6 4.5 1.9c1.2 1.2 1.9 2.8 1.9 4.8 0 1.9-.6 3.4-1.7 4.8-1.2 1.4-2.6 2-4.5 2-1.7 0-3.3-.6-4.5-2-1.2-1.2-1.9-3-1.9-5 0-1.8.4-3.3 1.7-4.6zm2.1-.4c-.9.8-1.4 2.3-1.4 4.3 0 1.7.3 3.1 1.1 4.7.8 1.4 1.7 2.2 3.1 2.2 1.1 0 1.9-.5 2.3-1.4.6-.9.8-2.2.8-3.7 0-1.6-.3-3.1-1.1-4.5s-1.7-2.2-3.1-2.2c-.4 0-1 .1-1.7.6zm18.5 5.9c.5 1.2 1.1 2.3 1.7 3.1 1.1 1.4 2.5 2 4.2 2 .9 0 1.7-.3 2.3-.9.6-.6.9-1.4.9-2.3s-.3-1.7-.9-2.5c-.5-.5-1.4-1.1-2.8-2l-2.5-1.6c-.8-.5-1.2-.9-1.7-1.4-.8-.9-1.2-1.9-1.2-3 0-1.4.5-2.6 1.4-3.6.9-.9 2.2-1.4 3.7-1.4.6 0 1.4.2 2.3.5.9.3 1.4.5 1.6.5.3 0 .6-.2.8-.3s.3-.5.3-.8h.6l.6 6.1h-.6c-.5-1.9-1.2-3.1-2.2-3.7-1.1-.8-2-1.1-3.1-1.1-.8 0-1.4.2-2 .6-.6.5-.9 1.1-.9 1.9 0 .8.2 1.4.6 1.9s1.1 1.1 2 1.7l2.5 1.6c1.6.9 2.6 1.9 3.3 2.6.6.8.9 1.7.9 3 0 1.6-.6 2.8-1.7 3.7s-2.5 1.6-4.3 1.6c-.9 0-1.9-.2-2.8-.5-.9-.3-1.6-.5-1.7-.5-.3 0-.6.2-.6.3-.2.2-.2.5-.2.6h-.6l-.8-6.1h.9zm18.3-7.3v8.9c0 .6.2 1.1.3 1.6.3.8.9 1.1 1.9 1.1.6 0 1.2-.2 1.9-.6.3-.2.6-.6 1.1-.9v-7.6c0-.8-.2-1.2-.5-1.4-.3-.2-.8-.3-1.7-.5v-.5h4.5v9.8c0 .6.2 1.1.3 1.2.2.3.8.3 1.4.3v.5c-.5.2-.9.3-1.1.3-.3 0-.6.2-1.2.3-.3.2-.8.3-1.6.6h-.2v-2.3c-.6.8-1.2 1.2-1.7 1.7-.8.6-1.6.8-2.5.8-.8 0-1.6-.3-2.3-.9-.8-.6-1.1-1.6-1.1-2.8v-7.1c0-.8-.2-1.2-.5-1.4-.2-.2-.6-.3-1.2-.3v-.5h4.2v-.3zm10 18.6c.9 0 1.4-.3 1.7-.6.3-.3.3-.8.3-1.6v-13.4c0-.8-.2-1.1-.3-1.4-.2-.2-.5-.3-.9-.3h-.6v-.5l1.2-.5 2.8-.9h.2v2c.6-.6 1.1-1.1 1.6-1.4.8-.5 1.7-.8 2.6-.8 1.2 0 2.3.5 3.3 1.6s1.4 2.6 1.4 4.5-.6 3.6-1.7 5c-1.1 1.6-2.5 2.3-4.2 2.3-.5 0-.9 0-1.4-.2-.6-.2-1.1-.6-1.7-1.1v4.5c0 .9.2 1.6.5 1.7.3.2.9.3 2 .5v.5h-6.8zm5.4-6.8c.5.3 1.1.5 1.7.5.9 0 1.9-.5 2.5-1.6.8-.9 1.1-2.3 1.1-4.2 0-1.7-.3-3-1.1-3.9-.8-.8-1.6-1.2-2.5-1.2-.6 0-1.2.2-1.9.6-.6.5-.8.8-.8 1.2v7c.2.8.5 1.3 1 1.6zm18.6-10.6c.9.9 1.4 2.2 1.4 3.9h-8.9c.2 2.2.6 3.7 1.4 4.7.9.9 1.9 1.4 3.1 1.4.9 0 1.9-.3 2.5-.8.6-.5 1.2-1.2 1.9-2.2l.5.2c-.3 1.2-1.1 2.3-2.2 3.3-1.1.9-2.3 1.6-3.9 1.6-1.7 0-3.1-.6-4-2-.9-1.2-1.4-2.8-1.4-4.5 0-1.9.6-3.4 1.7-4.8s2.5-2 4.3-2c1.5-.2 2.6.3 3.6 1.2zm-6.6 1.1c-.3.5-.5 1.1-.6 1.9h5.9c-.2-.9-.3-1.6-.5-2-.5-.8-1.2-1.2-2.3-1.2-1.1-.1-2.1.4-2.5 1.3zm9.4 10.1c.8 0 1.4-.2 1.7-.5.3-.2.5-.8.5-1.4v-6.2c0-.9-.2-1.6-.3-2-.2-.5-.5-.6-.9-.6h-.3c-.2 0-.3 0-.5.2v-.5c.5-.2 1.1-.3 1.6-.6.6-.2.9-.3 1.1-.5.5-.2.9-.3 1.4-.6h.2v2.6c.6-.8 1.2-1.4 1.7-1.9.6-.5 1.1-.6 1.7-.6.5 0 .9.2 1.1.5.3.3.5.6.5 1.1 0 .3-.2.6-.3.9-.2.3-.5.5-.8.5s-.8-.2-1.1-.5c-.3-.3-.6-.5-.8-.5-.3 0-.8.3-1.2.8s-.8 1.1-.8 1.6v6.2c0 .8.2 1.4.6 1.7.3.3.9.5 1.9.5v.5h-6.8v-.7h-.2zm10 .2c.9-.2 1.6-.3 1.9-.5.3-.3.3-.9.3-2v-6.7c0-.6 0-1.1-.2-1.2-.2-.3-.5-.6-.9-.6h-.3c-.2 0-.3.2-.8.2v-.5l.6-.2c1.6-.5 2.8-.9 3.4-1.2.3-.2.5-.2.5-.2v10.1c0 1.1.2 1.7.3 2 .3.3.8.5 1.7.5v.5h-6.7v-.2h.2zm2.2-18.7c.3-.3.6-.5 1.1-.5.5 0 .8.2 1.1.5.3.3.5.6.5 1.1s-.2.8-.5 1.1-.6.5-1.1.5-.8-.2-1.1-.5-.5-.6-.5-1.1.1-.8.5-1.1zm7.6 8c1.2-1.2 2.6-1.9 4.5-1.9s3.4.6 4.5 1.9c1.1 1.2 1.9 2.8 1.9 4.8 0 1.9-.6 3.4-1.7 4.8-1.2 1.4-2.6 2-4.5 2-1.7 0-3.3-.6-4.5-2-1.2-1.2-1.9-3-1.9-5-.2-1.9.4-3.4 1.7-4.6zm2.1-.5c-.9.8-1.4 2.3-1.4 4.3 0 1.7.3 3.1 1.1 4.7.8 1.4 1.7 2.2 3.1 2.2 1.1 0 1.9-.5 2.3-1.4.6-.9.8-2.2.8-3.7s-.3-3.1-1.1-4.5-1.7-2.2-3.1-2.2c-.6 0-1.2.1-1.7.6zm9.7 11c.8 0 1.4-.2 1.7-.5.3-.2.5-.8.5-1.4v-6.2c0-.9-.2-1.6-.3-2-.2-.5-.5-.6-.9-.6h-.3c-.2 0-.3 0-.5.2v-.5c.5-.2 1.1-.3 1.6-.6.6-.2.9-.3 1.1-.5.5-.2.9-.3 1.4-.6h.2v2.6c.6-.8 1.2-1.4 1.7-1.9.6-.5 1.1-.6 1.7-.6.5 0 .9.2 1.1.5.3.3.5.6.5 1.1 0 .3-.2.6-.3.9-.2.3-.5.5-.8.5-.3 0-.8-.2-1.1-.5-.3-.3-.6-.5-.8-.5-.3 0-.8.3-1.2.8s-.8 1.1-.8 1.6v6.2c0 .8.2 1.4.6 1.7.3.3.9.5 1.9.5v.5h-6.8v-.7h-.2zm19.2-11.2c.9.9 1.4 2.2 1.4 3.9H201c.2 2.2.6 3.7 1.4 4.7.9.9 1.9 1.4 3.1 1.4.9 0 1.9-.3 2.5-.8.6-.5 1.2-1.2 1.9-2.2l.5.2c-.3 1.2-1.1 2.3-2.2 3.3-1.1.9-2.3 1.6-3.9 1.6-1.7 0-3.1-.6-4-2-.9-1.2-1.4-2.8-1.4-4.5 0-1.9.6-3.4 1.7-4.8s2.5-2 4.3-2c1.2-.2 2.5.3 3.4 1.2zm-6.7 1.1c-.3.5-.5 1.1-.6 1.9h5.9c-.2-.9-.3-1.6-.5-2-.5-.8-1.2-1.2-2.3-1.2-1.1-.1-1.8.4-2.5 1.3zm16.7 16.3c.9 0 1.4-.3 1.7-.6.3-.3.3-.8.3-1.6v-13.4c0-.8-.2-1.1-.3-1.4-.2-.2-.5-.3-.9-.3h-.6v-.5l1.2-.5 2.8-.9h.2v2c.6-.6 1.1-1.1 1.6-1.4.8-.5 1.7-.8 2.6-.8 1.2 0 2.3.5 3.3 1.6.9 1.1 1.4 2.6 1.4 4.5s-.6 3.6-1.7 5c-1.1 1.6-2.5 2.3-4.2 2.3-.5 0-.9 0-1.4-.2-.6-.2-1.1-.6-1.7-1.1v4.5c0 .9.2 1.6.5 1.7s.9.3 2 .5v.5h-6.8zm5.4-6.8c.5.3 1.1.5 1.7.5.9 0 1.9-.5 2.5-1.6.8-.9 1.1-2.3 1.1-4.2 0-1.7-.3-3-1.1-3.9-.8-.8-1.6-1.2-2.5-1.2-.6 0-1.2.2-1.9.6-.6.5-.8.8-.8 1.2v7c.2.8.5 1.3 1 1.6zm18.5-10.6c.9.9 1.4 2.2 1.4 3.9h-8.9c.2 2.2.6 3.7 1.4 4.7.9.9 1.9 1.4 3.1 1.4.9 0 1.9-.3 2.5-.8.6-.5 1.2-1.2 1.9-2.2l.5.2c-.3 1.2-1.1 2.3-2.2 3.3-1.1.9-2.3 1.6-3.9 1.6-1.7 0-3.1-.6-4-2-.9-1.2-1.4-2.8-1.4-4.5 0-1.9.6-3.4 1.7-4.8s2.5-2 4.3-2c1.6-.2 2.6.3 3.6 1.2zm-6.5 1.1c-.3.5-.5 1.1-.6 1.9h5.9c-.2-.9-.3-1.6-.5-2-.5-.8-1.2-1.2-2.3-1.2-1.3-.1-2.1.4-2.5 1.3zm9.3 10.1c.8 0 1.4-.2 1.7-.5.3-.2.5-.8.5-1.4v-6.2c0-.9-.2-1.6-.3-2-.2-.5-.5-.6-.9-.6h-.3c-.2 0-.3 0-.5.2v-.5c.5-.2 1.1-.3 1.6-.6.6-.2.9-.3 1.1-.5.5-.2.9-.3 1.4-.6h.2v2.6c.6-.8 1.2-1.4 1.7-1.9.6-.5 1.1-.6 1.7-.6.5 0 .9.2 1.1.5.3.3.5.6.5 1.1 0 .3-.2.6-.3.9-.2.3-.5.5-.8.5s-.8-.2-1.1-.5c-.3-.3-.6-.5-.8-.5-.3 0-.8.3-1.2.8s-.8 1.1-.8 1.6v6.2c0 .8.2 1.4.6 1.7.3.3.9.5 1.9.5v.5h-7v-.7zm17 .2c.9-.2 1.4-.3 1.7-.5.3-.3.5-.8.5-1.6v-13.5c0-.6 0-1.1-.2-1.2-.2-.5-.6-.6-1.1-.6h-.5c-.2 0-.3 0-.6.2v-.5c1.2-.3 2.8-.8 4.5-1.4 0 0 .2 0 .2.2V373c0 .8.2 1.4.5 1.6.3.3.8.3 1.7.5v.5H262v-.6zm10.5-5.8c.8-.6 2.5-1.2 5.1-2.3v-1.2c0-.9-.2-1.6-.3-2-.3-.6-.9-.9-2-.9-.5 0-.9.2-1.4.3-.5.3-.6.6-.6 1.1v1.1c0 .5-.2.9-.5 1.1-.2.2-.5.2-.6.2-.5 0-.8-.2-.9-.5-.2-.3-.3-.6-.3-.9 0-.6.5-1.4 1.2-2 .8-.6 2-1.1 3.6-1.1 1.9 0 3 .6 3.7 1.7.3.6.5 1.6.5 2.8v5.6c0 .5 0 .9.2 1.1.2.3.3.6.8.6.2 0 .5 0 .5-.2.2 0 .3-.2.8-.5v.8l-.9.9c-.5.3-1.1.5-1.6.5-.6 0-1.1-.2-1.4-.6-.3-.5-.5-.9-.5-1.4-.8.6-1.2 1.1-1.9 1.4-.8.5-1.7.8-2.5.8s-1.6-.3-2-.8c-.6-.6-.9-1.2-.9-2.2-.2-1.4.5-2.4 1.9-3.4zm5.1-1.5c-1.1.3-2 .8-2.6 1.2-1.4.8-2 1.7-2 2.8 0 .8.3 1.4.8 1.9.3.3.8.5 1.2.5.6 0 1.2-.2 1.7-.5.6-.3.8-.8.8-1.2v-4.7h.1zm11.9 7.1c1.1-.2 1.7-.3 2-.6.3-.3.5-1.1.5-2.2v-12.3c0-.9-.2-1.7-.5-2-.3-.3-.9-.5-2-.6v-.5h7.5c2.3 0 4.2.5 5.6 1.4 1.4.9 1.9 2.2 1.9 3.7 0 1.9-.8 3.3-2.2 4.2-1.4.9-3.3 1.2-5.3 1.2h-2.3v5.1c0 1.1.2 1.7.5 2 .3.3 1.1.5 2.2.5v.5h-7.8v-.4h-.1zm9.7-16.8c-.8-.3-1.9-.5-3.1-.5-.6 0-.9 0-1.1.2-.2.2-.2.3-.2.8v7.5c.5 0 .8 0 .9.2h.5c1.2 0 2.3-.2 3.1-.6 1.4-.6 2-1.9 2-3.7 0-2-.7-3.2-2.1-3.9zm5.9 16.8c.8 0 1.4-.2 1.7-.5.3-.2.5-.8.5-1.4v-6.2c0-.9-.2-1.6-.3-2s-.5-.6-.9-.6h-.3c-.2 0-.3 0-.5.2v-.5c.5-.2 1.1-.3 1.6-.6.6-.2.9-.3 1.1-.5.5-.2.9-.3 1.4-.6h.2v2.6c.6-.8 1.2-1.4 1.7-1.9.6-.5 1.1-.6 1.7-.6.5 0 .9.2 1.1.5.3.3.5.6.5 1.1 0 .3-.2.6-.3.9s-.5.5-.8.5-.8-.2-1.1-.5c-.3-.3-.6-.5-.8-.5-.3 0-.8.3-1.2.8s-.8 1.1-.8 1.6v6.2c0 .8.2 1.4.6 1.7.3.3.9.5 1.9.5v.5h-6.8l-.2-.7zm11.8-10.5c1.2-1.2 2.6-1.9 4.5-1.9s3.4.6 4.5 1.9c1.1 1.2 1.9 2.8 1.9 4.8 0 1.9-.6 3.4-1.7 4.8-1.2 1.4-2.6 2-4.5 2-1.7 0-3.3-.6-4.5-2-1.2-1.2-1.9-3-1.9-5-.2-1.9.4-3.4 1.7-4.6zm2.1-.5c-.9.8-1.4 2.3-1.4 4.3 0 1.7.3 3.1 1.1 4.7.8 1.4 1.7 2.2 3.1 2.2 1.1 0 1.9-.5 2.3-1.4.6-.9.8-2.2.8-3.7s-.3-3.1-1.1-4.5-1.7-2.2-3.1-2.2c-.6 0-1.2.1-1.7.6zm16.8-1.3v.9H333v7.9c0 .8 0 1.2.2 1.6.2.6.6.9 1.2.9.3 0 .6-.2.9-.3.3-.2.5-.5.8-.8l.3.3-.3.5c-.5.6-.9 1.1-1.6 1.4-.5.3-1.1.5-1.6.5-1.1 0-1.9-.5-2.2-1.4-.2-.5-.3-1.2-.3-2.2v-8.4H329s-.2 0-.2-.2v-.2s.2-.2.5-.3c.6-.5 1.1-.9 1.4-1.2.3-.3.9-1.2 2-2.6h.2v3.6h3-.1zm10.6 1.1c.9.9 1.4 2.2 1.4 3.9h-8.9c.2 2.2.6 3.7 1.4 4.7.9.9 1.9 1.4 3.1 1.4.9 0 1.9-.3 2.5-.8s1.2-1.2 1.9-2.2l.5.2c-.3 1.2-1.1 2.3-2.2 3.3s-2.3 1.6-3.9 1.6c-1.7 0-3.1-.6-4-2-.9-1.2-1.4-2.8-1.4-4.5 0-1.9.6-3.4 1.7-4.8s2.5-2 4.3-2c1.4-.2 2.6.3 3.6 1.2zm-6.7 1.1c-.3.5-.5 1.1-.6 1.9h5.9c-.2-.9-.3-1.6-.5-2-.5-.8-1.2-1.2-2.3-1.2s-1.9.4-2.5 1.3zm20.8-2.2v.3l-7.8 11.5h3.9c1.4 0 2.2-.2 2.6-.5.3-.3.8-1.2 1.1-2.5l.5.2-.5 3.9h-10.7v-.3l7.6-11.6h-3.7c-.9 0-1.7.2-2 .5-.3.3-.5.9-.6 2h-.5v-3.4h10.1zm1.7 12.5c.9-.2 1.6-.3 1.9-.5.3-.3.3-.9.3-2v-6.7c0-.6 0-1.1-.2-1.2-.2-.3-.5-.6-.9-.6h-.3c-.2 0-.3.2-.8.2v-.5l.6-.2c1.6-.5 2.8-.9 3.4-1.2.3-.2.5-.2.5-.2v10.1c0 1.1.2 1.7.3 2 .3.3.8.5 1.7.5v.5H362v-.2h.2zm2.2-18.7c.3-.3.6-.5 1.1-.5s.8.2 1.1.5c.3.3.5.6.5 1.1s-.2.8-.5 1.1c-.3.3-.6.5-1.1.5s-.8-.2-1.1-.5c-.3-.3-.5-.6-.5-1.1.2-.4.2-.8.5-1.1zm7.6 8c1.2-1.2 2.6-1.9 4.5-1.9s3.4.6 4.5 1.9c1.2 1.2 1.9 2.8 1.9 4.8 0 1.9-.6 3.4-1.7 4.8-1.2 1.4-2.6 2-4.5 2-1.7 0-3.3-.6-4.5-2-1.2-1.2-1.9-3-1.9-5 0-1.9.6-3.4 1.7-4.6zm2.2-.5c-.9.8-1.4 2.3-1.4 4.3 0 1.7.3 3.1 1.1 4.7.8 1.4 1.7 2.2 3.1 2.2 1.1 0 1.9-.5 2.3-1.4.6-.9.8-2.2.8-3.7s-.3-3.1-1.1-4.5-1.7-2.2-3.1-2.2c-.5 0-1.1.1-1.7.6zm10.1 11.2c.6-.2 1.1-.3 1.4-.5.3-.3.5-.8.5-1.7v-7c0-.6 0-.9-.2-1.2-.2-.3-.5-.5-1.1-.5h-.6v-.5c.3-.2 1.2-.5 2.6-.9l1.2-.5h.2v2.2c.8-.8 1.6-1.4 2-1.7.8-.5 1.4-.6 2.2-.6.6 0 1.2.2 1.7.5.9.8 1.6 2 1.6 3.7v6.5c0 .6.2 1.1.5 1.4.3.3.8.5 1.4.5v.5h-5.9v-.5c.6-.2 1.1-.3 1.4-.6.3-.3.5-.9.5-1.9v-5.9c0-.8-.2-1.4-.5-2-.3-.5-.8-.8-1.6-.8-.5 0-1.1.2-1.7.6-.3.2-.8.6-1.2 1.1v7.8c0 .6.2 1.1.5 1.4.3.2.8.3 1.4.3v.5h-6.2l-.1-.2zm23.6-11.4c.9.9 1.4 2.2 1.4 3.9h-8.9c.2 2.2.6 3.7 1.4 4.7.9.9 1.9 1.4 3.1 1.4.9 0 1.9-.3 2.5-.8s1.2-1.2 1.9-2.2l.5.2c-.3 1.2-1.1 2.3-2.2 3.3-1.1.9-2.3 1.6-3.9 1.6-1.7 0-3.1-.6-4-2-.9-1.2-1.4-2.8-1.4-4.5 0-1.9.6-3.4 1.7-4.8s2.5-2 4.3-2c1.4-.2 2.6.3 3.6 1.2zm-6.7 1.1c-.3.5-.5 1.1-.6 1.9h5.9c-.2-.9-.3-1.6-.5-2-.5-.8-1.2-1.2-2.3-1.2s-1.9.4-2.5 1.3zM85.6 397.8c.9.9 1.4 2.2 1.4 3.9h-8.7c.2 2.2.6 3.7 1.4 4.7.9.9 1.9 1.4 3.1 1.4.9 0 1.9-.3 2.5-.8s1.2-1.2 1.9-2.2l.5.2c-.3 1.2-1.1 2.3-2.2 3.3-1.1.9-2.3 1.6-3.9 1.6-1.7 0-3.1-.6-4-2-.9-1.2-1.4-2.8-1.4-4.5 0-1.9.6-3.4 1.7-4.8s2.5-2 4.3-2c1.3-.2 2.5.3 3.4 1.2zm-6.6.9c-.3.5-.5 1.1-.6 1.9h5.9c-.2-.9-.3-1.6-.5-2-.5-.8-1.2-1.2-2.3-1.2s-1.9.4-2.5 1.3zM96.1 409c.9-.2 1.4-.3 1.7-.5.3-.3.5-.8.5-1.6v-13.5c0-.6 0-1.1-.2-1.2-.2-.5-.6-.6-1.1-.6h-.5c-.2 0-.3 0-.6.2v-.5c1.2-.3 2.8-.8 4.5-1.4 0 0 .2 0 .2.2V407c0 .8.2 1.4.5 1.6.3.3.8.3 1.7.5v.5h-6.7v-.6zm10.2-5.8c.8-.6 2.5-1.2 5.1-2.3v-1.2c0-.9-.2-1.6-.3-2-.3-.6-.9-.9-2-.9-.5 0-.9.2-1.4.3-.5.3-.6.6-.6 1.1v1.1c0 .5-.2.9-.5 1.1-.2.2-.5.2-.6.2-.5 0-.8-.2-.9-.5-.2-.3-.3-.6-.3-.9 0-.6.5-1.4 1.2-2 .8-.8 2-1.1 3.6-1.1 1.9 0 3 .6 3.7 1.7.3.6.5 1.6.5 2.8v5.6c0 .5 0 .9.2 1.1.2.3.3.6.8.6.2 0 .5 0 .5-.2.2 0 .3-.2.8-.5v.8l-.9.9c-.5.3-1.1.5-1.6.5-.6 0-1.1-.2-1.4-.6-.3-.5-.5-.9-.5-1.4-.8.6-1.2 1.1-1.9 1.4-.8.5-1.7.8-2.3.8-.8 0-1.6-.3-2-.8-.6-.6-.9-1.2-.9-2.2-.3-1.4.5-2.4 1.7-3.4zm5.1-1.5c-1.1.3-2 .8-2.6 1.2-1.4.8-2 1.7-2 2.8 0 .8.3 1.4.8 1.9.3.3.8.5 1.2.5.6 0 1.2-.2 1.7-.5.6-.3.8-.8.8-1.2v-4.7h.1zm12 7.1c1.1-.2 1.7-.3 2-.6.3-.3.5-1.1.5-2.2v-12.3c0-.9-.2-1.7-.5-2-.3-.3-.9-.5-2-.6v-.5h7.8c1.7 0 3 .2 4 .6 2 .8 3.1 2.2 3.1 4.3 0 1.4-.5 2.5-1.4 3.3s-2.2 1.2-3.7 1.6l5.9 7.1c.3.5.8.8 1.1.9s.8.3 1.4.3v.5H137l-7.1-8.7h-1.2v5.6c0 1.1.2 1.7.5 2 .3.3 1.1.5 2 .6v.5h-7.8v-.4zm9.6-9.8c1.6-.6 2.3-1.9 2.3-3.6 0-1.7-.6-2.8-2-3.4-.8-.3-1.7-.5-3-.5-.8 0-1.2 0-1.6.2-.2.2-.3.3-.3.8v7c2.3.2 3.8-.2 4.6-.5zm9.5 10c.9-.2 1.6-.3 1.9-.5.3-.3.3-.9.3-2v-6.7c0-.6 0-1.1-.2-1.2-.2-.3-.5-.6-.9-.6h-.3c-.2 0-.3.2-.8.2v-.5l.6-.2c1.6-.5 2.8-.9 3.4-1.2.3-.2.5-.2.5-.2v10.1c0 1.1.2 1.7.3 2 .3.3.8.5 1.7.5v.5h-6.7v-.2h.2zm2.3-18.5c.3-.3.6-.5 1.1-.5.5 0 .8.2 1.1.5.3.3.5.6.5 1.1s-.2.8-.5 1.1c-.3.3-.6.5-1.1.5-.5 0-.8-.2-1.1-.5-.3-.3-.5-.6-.5-1.1s.2-.8.5-1.1zm15.1 6.7c.8.6 1.2 1.2 1.2 2 0 .3-.2.6-.3.8-.2.2-.5.5-.9.5-.3 0-.6-.2-.8-.3-.3-.2-.5-.6-.5-.9l-.2-.6c-.2-.5-.3-.8-.6-1.1-.3-.2-.8-.3-1.2-.3-1.1 0-2 .5-2.6 1.4-.8.9-1.1 2.2-1.1 3.7 0 1.4.5 2.6 1.2 3.7.8 1.1 1.9 1.7 3.3 1.7.9 0 1.9-.3 2.6-.9.5-.3.9-.9 1.4-1.7l.5.3c-.5 1.1-1.1 2-1.7 2.6-1.1 1.2-2.5 1.9-3.9 1.9s-2.6-.6-3.9-1.7c-1.1-1.1-1.7-2.6-1.7-4.7 0-1.9.6-3.6 1.9-5 1.2-1.4 2.8-2 4.7-2 .7-.4 1.8-.1 2.6.6zm12.6.6c.9.9 1.4 2.2 1.4 3.9H165c.2 2.2.6 3.7 1.4 4.7.9.9 1.9 1.4 3.1 1.4.9 0 1.9-.3 2.5-.8.6-.5 1.2-1.2 1.9-2.2l.5.2c-.3 1.2-1.1 2.3-2.2 3.3s-2.3 1.6-3.9 1.6c-1.7 0-3.1-.6-4-2-.9-1.2-1.4-2.8-1.4-4.5 0-1.9.6-3.4 1.7-4.8s2.5-2 4.3-2c1.4-.2 2.5.3 3.6 1.2zm-6.7.9c-.3.5-.5 1.1-.6 1.9h5.9c-.2-.9-.3-1.6-.5-2-.5-.8-1.2-1.2-2.3-1.2-1.1-.1-2.1.4-2.5 1.3zm9.4 10.3c.8 0 1.4-.2 1.7-.5.3-.2.5-.8.5-1.4v-6.2c0-.9-.2-1.6-.3-2-.2-.5-.5-.6-.9-.6h-.3c-.2 0-.3 0-.5.2v-.5c.5-.2 1.1-.3 1.6-.6.6-.2.9-.3 1.1-.5.5-.2.9-.3 1.4-.6h.2v2.6c.6-.8 1.2-1.4 1.7-1.9.6-.5 1.1-.6 1.7-.6.5 0 .9.2 1.1.5.3.3.5.6.5 1.1 0 .3-.2.6-.3.9-.2.3-.5.5-.8.5-.3 0-.8-.2-1.1-.5-.3-.3-.6-.5-.8-.5-.3 0-.8.3-1.2.8s-.8 1.1-.8 1.6v6.2c0 .8.2 1.4.6 1.7.3.3.9.5 1.9.5v.5h-6.8v-.7h-.2zm19.5-11.8c.8.6 1.2 1.2 1.2 2 0 .3-.2.6-.3.8-.2.2-.5.5-.9.5-.3 0-.6-.2-.8-.3-.3-.2-.5-.6-.5-.9l-.2-.6c-.2-.5-.3-.8-.6-1.1-.3-.2-.8-.3-1.2-.3-1.1 0-2 .5-2.6 1.4-.8.9-1.1 2.2-1.1 3.7 0 1.4.5 2.6 1.2 3.7.8 1.1 1.9 1.7 3.3 1.7.9 0 1.9-.3 2.6-.9.5-.3.9-.9 1.4-1.7l.5.3c-.5 1.1-1.1 2-1.7 2.6-1.1 1.2-2.5 1.9-3.9 1.9s-2.6-.6-3.9-1.7c-1.1-1.1-1.7-2.6-1.7-4.7 0-1.9.6-3.6 1.9-5 1.2-1.4 2.8-2 4.7-2 .7-.4 1.6-.1 2.6.6zm5.5 6c.8-.6 2.5-1.2 5.1-2.3v-1.2c0-.9-.2-1.6-.3-2-.3-.6-.9-.9-2-.9-.5 0-.9.2-1.4.3-.5.3-.6.6-.6 1.1v1.1c0 .5-.2.9-.5 1.1-.2.2-.5.2-.6.2-.5 0-.8-.2-.9-.5-.2-.3-.3-.6-.3-.9 0-.6.5-1.4 1.2-2 .8-.8 2-1.1 3.6-1.1 1.9 0 3 .6 3.7 1.7.3.6.5 1.6.5 2.8v5.6c0 .5 0 .9.2 1.1.2.3.3.6.8.6.2 0 .5 0 .5-.2.2 0 .3-.2.8-.5v.8l-.9.9c-.5.3-1.1.5-1.6.5-.6 0-1.1-.2-1.4-.6s-.5-.9-.5-1.4c-.8.6-1.2 1.1-1.9 1.4-.8.5-1.7.8-2.3.8-.8 0-1.6-.3-2-.8-.6-.6-.9-1.2-.9-2.2-.3-1.4.3-2.4 1.7-3.4zm5.2-1.5c-1.1.3-2 .8-2.6 1.2-1.4.8-2 1.7-2 2.8 0 .8.3 1.4.8 1.9.3.3.8.5 1.2.5.6 0 1.2-.2 1.7-.5.6-.3.8-.8.8-1.2v-4.7h.1zm10.4 7.7v-.4c.8-.2 1.2-.3 1.7-.8.3-.5.9-1.7 1.9-3.9l5.9-14h.6l7.1 16.1c.5 1.1.8 1.7 1.1 2 .3.3.8.5 1.4.5v.5h-7.3v-.4c.8 0 1.4-.2 1.6-.3.3-.2.3-.3.3-.8 0-.2 0-.3-.2-.8-.2-.3-.2-.8-.5-1.1l-1.1-2.8h-7.5c-.8 1.9-1.2 3-1.4 3.4-.2.5-.2.8-.2.9 0 .5.2.8.6.9.3.2.6.2 1.4.3v.5h-5.6l.2.2zm12.1-7.3l-3.3-7.8-3.3 7.8h6.6zm8.4 6.9c.8 0 1.2-.2 1.4-.3.3-.3.6-.8.6-1.6V400c0-.6-.2-1.1-.3-1.4-.2-.2-.5-.3-.9-.3h-.5c-.2 0-.2 0-.3.2v-.5l.9-.3c.3-.2.9-.3 1.7-.6s1.2-.5 1.2-.5h.2v2.2c.9-.8 1.7-1.4 2.3-1.7.6-.3 1.4-.5 2-.5.9 0 1.7.3 2.3.9.3.3.5.8.8 1.4.6-.6 1.2-1.2 1.9-1.6.9-.6 1.7-.9 2.6-.9 1.6 0 2.5.6 3 1.9.3.6.5 1.7.5 3.3v5.7c0 .6.2 1.1.5 1.4.3.3.8.5 1.6.5v.3h-6.2v-.5c.8 0 1.4-.3 1.6-.5.3-.3.3-.8.3-1.6v-6.1c0-.9-.2-1.6-.3-2-.3-.8-1.1-1.1-2-1.1-.6 0-1.2.2-1.9.6-.3.2-.8.6-1.2 1.1v7.1c0 .8.2 1.2.5 1.7s.8.6 1.7.6v.3h-6.4v-.1c.9-.2 1.4-.3 1.7-.6.3-.3.3-1.1.3-2.3v-3.9c0-1.4-.2-2.3-.3-3-.3-.9-.9-1.4-1.9-1.4-.6 0-1.1.2-1.7.5-.6.3-1.1.8-1.4 1.2v7.6c0 .8.2 1.2.3 1.4.3.3.8.5 1.6.5v.3H236v-.3h.3zm21.7-17.3v-.5c1.1-.3 2-.5 2.8-.8.8-.3 1.2-.5 1.4-.5v8.5c.3-.5.6-.9 1.1-1.2.8-.6 1.9-1.1 3-1.1 1.4 0 2.5.6 3.4 1.7.9 1.1 1.4 2.6 1.4 4.5 0 2-.6 3.6-1.9 5-1.2 1.4-3 2-5 2-1.1 0-2-.2-3-.6-.9-.5-1.6-.8-1.6-1.2V393c0-.5 0-.9-.2-1.1-.2-.2-.5-.3-1.1-.3l-.3.1zm5.3 16.7c.6.2 1.2.3 1.7.3 1.2 0 2.2-.5 2.8-1.4.6-.9.9-2.2.9-3.6s-.3-2.6-.9-3.9c-.6-1.2-1.6-1.7-2.8-1.7-.6 0-1.2.2-1.9.6-.6.5-.9.9-.9 1.6v7.1c.2.5.5.8 1.1 1zm9.3.6c.9-.2 1.6-.3 1.9-.5.3-.3.3-.9.3-2v-6.7c0-.6 0-1.1-.2-1.2-.2-.3-.5-.6-.9-.6h-.3c-.2 0-.3.2-.8.2v-.5l.6-.2c1.6-.5 2.8-.9 3.4-1.2.3-.2.5-.2.5-.2v10.1c0 1.1.2 1.7.3 2 .3.3.8.5 1.7.5v.5h-6.7v-.2h.2zm2.3-18.5c.3-.3.6-.5 1.1-.5s.8.2 1.1.5c.3.3.5.6.5 1.1s-.2.8-.5 1.1c-.3.3-.6.5-1.1.5s-.8-.2-1.1-.5c-.3-.3-.5-.6-.5-1.1s.2-.8.5-1.1zm15.1 7.3c.9.9 1.4 2.2 1.4 3.9h-8.9c.2 2.2.6 3.7 1.4 4.7.9.9 1.9 1.4 3.1 1.4.9 0 1.9-.3 2.5-.8.6-.5 1.2-1.2 1.9-2.2l.5.2c-.3 1.2-1.1 2.3-2.2 3.3-1.1.9-2.3 1.6-3.9 1.6-1.7 0-3.1-.6-4-2-.9-1.2-1.4-2.8-1.4-4.5 0-1.9.6-3.4 1.7-4.8s2.5-2 4.3-2c1.4-.2 2.5.3 3.6 1.2zm-6.7.9c-.3.5-.5 1.1-.6 1.9h5.9c-.2-.9-.3-1.6-.5-2-.5-.8-1.2-1.2-2.3-1.2-1.1-.1-2 .4-2.5 1.3zm9.8 10.3c.6-.2 1.1-.3 1.4-.5.3-.3.5-.8.5-1.7v-7c0-.6 0-.9-.2-1.2-.2-.3-.5-.5-1.1-.5h-.6v-.5c.3-.2 1.2-.5 2.6-.9l1.2-.5h.2v2.2c.8-.8 1.6-1.4 2-1.7.8-.5 1.4-.6 2.2-.6.6 0 1.2.2 1.7.5.9.8 1.6 2 1.6 3.7v6.5c0 .6.2 1.1.5 1.4.3.3.8.5 1.4.5v.5h-6.1v-.5c.6-.2 1.1-.3 1.4-.6.3-.3.5-.9.5-1.9v-5.9c0-.8-.2-1.4-.5-2-.3-.5-.8-.8-1.6-.8-.6 0-1.1.2-1.7.6-.3.2-.8.6-1.2 1.1v7.8c0 .6.2 1.1.5 1.4.3.2.8.3 1.4.3v.5h-6.1v-.2zm21-12.5v.9h-2.8v7.9c0 .8 0 1.2.2 1.6.2.6.6.9 1.2.9.3 0 .6-.2.9-.3s.5-.5.8-.8l.3.3-.3.5c-.5.6-.9 1.1-1.6 1.4-.5.3-1.1.5-1.6.5-1.1 0-1.9-.5-2.2-1.4-.2-.5-.3-1.2-.3-2.2v-8.4h-1.6s-.2 0-.2-.2v-.2s.2-.2.5-.3c.6-.5 1.1-.9 1.4-1.2.3-.3.9-1.2 2-2.6h.2v3.6h3.1zm3.7 6.7c.8-.6 2.5-1.2 5.1-2.3v-1.2c0-.9-.2-1.6-.3-2-.3-.6-.9-.9-2-.9-.5 0-.9.2-1.4.3-.5.3-.6.6-.6 1.1v1.1c0 .5-.2.9-.5 1.1-.2.2-.5.2-.6.2-.5 0-.8-.2-.9-.5-.2-.3-.3-.6-.3-.9 0-.6.5-1.4 1.2-2 .8-.8 2-1.1 3.6-1.1 1.9 0 3 .6 3.7 1.7.3.6.5 1.6.5 2.8v5.6c0 .5 0 .9.2 1.1.2.3.3.6.8.6.2 0 .5 0 .5-.2.2 0 .3-.2.8-.5v.8l-.9.9c-.5.3-1.1.5-1.6.5-.6 0-1.1-.2-1.4-.6-.3-.5-.5-.9-.5-1.4-.8.6-1.2 1.1-1.9 1.4-.8.5-1.7.8-2.3.8-.8 0-1.6-.3-2-.8-.6-.6-.9-1.2-.9-2.2-.3-1.4.3-2.4 1.7-3.4zm5.1-1.5c-1.1.3-2 .8-2.6 1.2-1.4.8-2 1.7-2 2.8 0 .8.3 1.4.8 1.9.3.3.8.5 1.2.5.6 0 1.2-.2 1.7-.5.6-.3.8-.8.8-1.2v-4.7h.1zm5 7.3c.9-.2 1.4-.3 1.7-.5.3-.3.5-.8.5-1.6v-13.5c0-.6 0-1.1-.2-1.2-.2-.5-.6-.6-1.1-.6h-.5c-.2 0-.3 0-.6.2v-.5c1.2-.3 2.8-.8 4.5-1.4 0 0 .2 0 .2.2V407c0 .8.2 1.4.5 1.6.3.3.8.3 1.7.5v.5h-6.7v-.6zm17.2-11.2c.9.9 1.4 2.2 1.4 3.9h-8.9c.2 2.2.6 3.7 1.4 4.7.9.9 1.9 1.4 3.1 1.4.9 0 1.9-.3 2.5-.8.6-.5 1.2-1.2 1.9-2.2l.5.2c-.3 1.2-1.1 2.3-2.2 3.3-1.1.9-2.3 1.6-3.9 1.6-1.7 0-3.1-.6-4-2-.9-1.2-1.4-2.8-1.4-4.5 0-1.9.6-3.4 1.7-4.8s2.5-2 4.3-2c1.5-.2 2.7.3 3.6 1.2zm-6.7.9c-.3.5-.5 1.1-.6 1.9h5.9c-.2-.9-.3-1.6-.5-2-.5-.8-1.2-1.2-2.3-1.2s-1.8.4-2.5 1.3z"/><path class="st1" d="M222.5 202.8c1.1-1.4 1.7-2.5 2.6-4.2 1.1-1.7 3.9-3.9 6.4-5.3 2.5-1.4 10.2-5.6 11.6-6.7 1.4-1.1 1.7 0 3.6 0 1.7 0 5.3 2 6.7 6.4 1.4 4.2 4.8 14.1 5.7 15.8.2.5-9.8-1.6-13.7-2.2-4-.6-10.1-1.6-17.2-3.3m-33.2-1.2c-1.1-1.4-.5-1.9-1.6-3.7-1.1-1.7-3.9-3.9-6.4-5.3-2.5-1.4-10.2-5.6-11.6-6.7s-1.7 0-3.6 0c-1.7 0-5.3 2-6.7 6.4-1.4 4.2-4.5 12.3-5.1 14.1-.8 1.7 4.8-.9 9.9-.9 4 0 14.3-1.9 17.1-2.5"/><path class="st2" d="M283.3 107.7H279c-.2-2-.3-3.9-.8-5.9-.3-1.7-.6-3.6-1.1-5.3v-.2l4.8-1.6 1.4-1.9-2.3-7.3-2.8-.6-4.2 1.4c-.8-1.9-1.6-3.6-2.3-5.3-.8-1.6-1.7-3.3-2.6-4.7l-.2-.2 4-3 .6-2.2-4.5-6.4-2.8.2-3.6 2.5c-1.2-1.6-2.6-3-4-4.3-1.2-1.2-2.6-2.5-4-3.7h-.2l3-4v-2.3l-6.4-4.5-2.6 1.2-2.5 3.6c-1.7-1.1-3.4-2-5.1-3-1.6-.8-3.3-1.6-4.8-2.3h-.2l1.6-4.8-.8-2.2-7.5-2.3-2 1.9-1.2 4.2c-1.9-.5-3.9-.9-5.7-1.2-1.7-.3-3.6-.5-5.3-.6h-.2v-5l-1.4-1.9h-7.8l-1.4 2.5V43c-2 .2-3.9.3-5.9.6h-.3c-1.7.3-3.3.6-5 .9l-.2.2-1.6-4.8-1.9-1.4-7.3 2.5-.6 2.8 1.4 4.2c-1.9.8-4 1.7-5.7 2.6-1.6.8-3 1.6-4.3 2.5v.2l-3-4-2.2-.6-6.4 4.5.3 2.8 2.5 3.4c-1.4 1.2-3 2.6-4.3 4-1.2 1.2-2.5 2.6-3.7 4v.2l-4-3h-2.3l-4.5 6.4 1.2 2.6 3.6 2.5c-1.1 1.7-2 3.4-3 5.1-.8 1.6-1.6 3.3-2.3 4.8v.2l-4.8-1.6-2.5.6-2.3 7.5 1.9 2 4.2 1.4c-.5 1.9-.9 3.9-1.2 5.7-.3 1.7-.6 3.6-.6 5.3v.2h-5l-1.9 1.4v7.8l2.5 1.4h4.3c.2 2 .3 3.9.6 5.9.3 1.7.6 3.6 1.1 5.3v.2l-4.8 1.6-1.4 1.9 2.3 7.3 2.8.6 4.2-1.2c.8 1.9 1.6 3.7 2.5 5.4.8 1.6 1.7 3.3 2.6 4.7h.2l-4 3-.6 2.2 4.5 6.4 2.8-.3 3.6-2.5c1.2 1.6 2.6 3 4 4.3 1.2 1.2 2.6 2.5 4 3.7h.2l-3 4v2.3l6.2 4.5 2.6-1.2 2.5-3.6c1.7 1.1 3.4 2 5.1 3 1.6.8 3.3 1.6 5 2.3h.2l-1.6 4.8.8 2.2 7.3 2.3 2.2-1.9 1.4-4.2c1.9.5 3.9.9 5.7 1.2 1.7.3 3.6.5 5.4.6h.2v5l1.4 1.9h7.8l1.4-2.5v-4.3c2-.2 3.9-.3 5.9-.6 1.7-.3 3.6-.6 5.3-1.1l.2-.2 1.6 4.8 1.9 1.4 7.3-2.3.6-2.8-1.4-4.2c1.9-.8 3.6-1.6 5.3-2.5 1.6-.8 3.3-1.7 4.7-2.6l.2-.2 3 4 2.2.6 6.4-4.5-.3-2.8-2.5-3.6c1.6-1.2 3-2.6 4.3-4 1.2-1.2 2.5-2.6 3.7-4v-.2l4 3 2.3-.2 4.5-6.2-1.2-2.6-3.6-2.5c1.1-1.6 2-3.4 3-5.1.8-1.6 1.6-3.3 2.3-5v-.2l4.8 1.6 2.2-.8 2.3-7.3-1.9-2.2-4.2-1.4c.5-1.9.9-3.9 1.2-5.7.3-1.7.5-3.7.6-5.4h5l1.9-1.4v-7.8l-2.7-1.1zm-23.1-21.6c.1 0 0 0 0 0l-38.8 10.2-2.2-40.3c17.8 3.1 32.9 14.6 41 30.1zm-60.4-30.2l-2.2 40.5-39.4-10.6c8.2-15.7 23.6-27 41.6-29.9zm-31.9 97.3c-10.2-10.4-16.6-24.7-16.6-40.4 0-3 .2-5.7.6-8.5v-.2l38.2 14.9c.1.1-22.2 34.2-22.2 34.2zm41.2 17.3c-9.2 0-17.7-2.2-25.5-5.9l25.8-31.5 25.5 31.4c-7.8 3.8-16.5 6-25.8 6zm41.6-17.7l-22.1-33.7 37.6-14.4c.5 2.6.6 5.4.6 8.2.1 15.5-6.1 29.5-16.1 39.9z"/><path class="st2" d="M178.4 155.6l12-36.5-31.2-22.7h38.5l11.8-36.5 12 36.5h38.4l-31.1 22.7 12 36.5-31.4-22.6-31 22.6z"/><path class="st1" d="M284.9 166.1s-2.6-6.4-3.3-12.7c-.5-6.4-1.2-10.4-.9-11.8s-.3-6.7 1.1-7.6 5.1-2 6.7-1.1c0 0 3.1-8.1 3.4-9.9.2-1.7.5-3.7 3-4.3 2.5-.8 2.6.2 3.1-.3.6-.5.3-1.4 1.2-1.6 1.2-.3 1.6-.2 2.5-.8.9-.5 1.9-1.2 2.6-1.4.8-.2 1.6 2.5 1.6 5s-.2 3.9-.2 3.9 3 1.7.8 6.1c0 0 3.4 2.3 1.6 5.3-1.7 3-4 5.3-6.8 6.7 0 0 3.9 4-3 10.2-7 6.2-5.4 4.5-5.4 4.5s4 3.1-3.4 7.9c-7.4 4.9-4.6 1.9-4.6 1.9zm-17.6.8s-3.9-.3-3.9-4.5.5-.2.5-.2.9.3 1.1-.2c.2-.5-1.4-3.6-2.3-3.9s-2.6-.8-2.8-2.8c-.2-2.2-.8-3.1-.8-3.1s-1.4-2.3.8-3c2.2-.8 4.8-2.8 4.8-4.3 0-1.4-.5-7.9-1.6-9.3 0 0-.3-4-.2-4.8.2-.6 1.6-2 2.6-1.6 1.1.6 1.2-2 1.2-2.8 0-.8.2-.9 1.1-1.4.9-.6.8-1.6 1.7-1.1 1.1.5 1.7 1.2 2.2 2.5.3 1.2 1.2 1.6 1.4.9.2-.8.2-1.2 1.2-.8 1.1.6 1.6 3.4 1.7 5 .2 1.6-.2 5.6-1.1 7.1-.9 1.4-1.9 4.3-1.4 5.3.6.9 1.6-.2 2.6 0 1.1.2.8 3.6.6 5.3-.2 1.7-.2 2.6-.2 2.6s.3-1.6 1.2-1.6c.9 0 2.3.6 2.6 1.7.7 1.2-13 15-13 15zm-53.5 53.7l-3.1-.8c-19.6 6.1-9.8 4.2-10.9 4.7-1.1.3-4.2 4-5.9 4.3-1.7.3-5 6.1-6.7 5 0 0-3.7 2-5.1 5.3-1.4 3.1-2.8 3.4-4.7 4.3-1.7 1.1-4 3.1-4 3.1l.6-.3s1.4-2.5-1.1-3.6-4.2-1.7-4.2-1.7-1.7-1.1-3.9-1.4c-1.7-.3-1.4-1.7-2.5-1.4 1.4-.8 4.2-1.7 9.2-5.9 0 0-1.2-1.2 0-2.3 1.2-1.1 3-2.5 3.9-2.6.9-.2 2.3-.5 3.9-.5s16.5-1.2 20.3-3.4c1.2-.6-3.3 0-1.1 0"/><path class="st1" d="M278.7 159.3c-2.3 1.1-7 9.2-8.2 12.3-1.2 3-9 13.7-12.7 16.9 0 0-1.9.5-3 1.7 0 0 2.3-1.7 3-1.7.8 0-1.4 1.6-1.4 2.6 0 0 4.3-5.9 5.7-7.3 1.2-1.4 7-9.2 7.8-10.7.8-1.6 4.8-9.3 5.6-10.1.9-.8 4-3.7 6.1-4.3 1.9-.8 3.1-2.3 3.7-2.8.6-.6 2.6-.3 2.6-.3s-8.1 9.2-9.8 10.9c-1.6 1.7-3.9 7.1-5.3 9.8-1.4 2.5-5.1 9.9-7.1 12-2.2 2.2-5.4 3.9-6.5 4.3 0 0 1.2.9.3 1.4s-2.8 1.2-4.2 1.7c0 0-6.7 6.8-12.7 10.7m-5.1-7.4c0-.5-.2-2.6.2-3.4.3-.8 3.7-2.5 4.2-2.3.6.2 3.7 1.4 3.7 1.4s5.6-3.3 6.7-4.5c1.1-1.4 5.3-7.5 5.4-8.7.2-1.2.3-6.2 1.2-7 .9-.9 3.9-1.6 4.3.3 0 0-.6 2.3-.6 2.8 0 0 2.8-8.4 4.3-11.3M174 246.1s1.4-2.5-1.1-3.6-4.2-1.7-4.2-1.7-1.7-1.1-3.9-1.4-1.1-2.5-3.6-1.1-1.1 2.6.3 3c1.4.3 1.4 1.6 1.4 1.6s1.1.2 1.4 1.6c.3 1.4 1.4 1.6 3.1 1.2 1.7-.3 2.5.3 3.6.9 1.3.7 3-.5 3-.5z"/><path class="st1" d="M179.4 234.3l-9.8 6.5m7.5-10.6c-.8 2.2-1.6 1.4-3.4 1.9-.6.2-1.6.5-2.2.6m0 0c-.9.3-1.7 1.6-2.6 2.5-1.4 1.2-3 2.2-4.5 3.3m91-42.9c-1.2 0-2.3-.5-3.6-.2-1.4.5-2.8 1.1-4 1.7m-5.5 4.6c-.9-.3-4.3-1.9-4.7-2.6m6-1.6c.3-.6.5-1.4.9-2 .2-.2.2-.6 0-.9h-.5m15.9-20.3c-.3-.2-.3.2-.6.2 0 .3-.2.8.2.9 1.2.6 2.6-.3 3.9.5v-.3m23.6-62.3c.5.3 2 2 2.5 2 .2 0 .3-.3.3-.3.9 0 4.5-1.7 5.3-2.2M172 241.7c1.1-.6 2-.9 3-1.6.6-.5 1.1-1.2 2-1.4.3 0 .3-.6.5-.6 1.1-.3 1.9-.8 2.8-1.4.9-.6 1.7-1.4 2.6-2.2 3-2.6 5.4-5.3 8.9-7.5 3-1.9 6.5-2.8 9.3-4.7m-13.4 10.9c.2-.2.2-.5.3-.6 1.4-1.6 3.9-2 4.5-4.2 4.5-2.5 8.5-5.1 13.4-7.1m-29.7 20.1c2.8-1.4 5.3-3.4 7.5-5.7m55.8-30.6c.8-.8 1.7-1.4 2.6-1.9.8-.3 1.6-.6 2.5-.9 1.2-.6 2-1.6 3.3-2.5.9-.6 1.4-1.6 2-2.5m-8.8 9c.6-.3.9-1.2 1.6-1.6 1.2-.6 2.3-1.1 3.4-1.7 1.6-.9 3-2.3 4.2-3.7.8-.8 1.6-1.7 2.2-2.5m18.7-31.5c.6-2.3 1.1-3 2.6-4.3 3-2.6 6.4-4.3 9.5-6.8.5-.5.9-.9 1.1-1.6m-92.5 49.8c-3.9-1.9-7-3.6-7.6-4.7-1.1-2.2-2.5-4.5-6.4-7.5-3.9-2.8-5.6 1.1-5.3 2.5.3 1.4 5 3.9 5 3.9-17.7-6.4-25.8-22.2-25.8-22.2 1.1-3.3-1.4-11-1.4-11-1.4.3-2.2 2.5-2.2 2.5v-2.2c0-1.1-7.3-7.8-7.3-7.8-6.1.8 0 6.4 0 6.4 3.9 9.6 7.1 8.1 7.1 8.1-1.1 0-1.1 3.3-1.1 3.3 1.7 5.6 5.3 8.9 5.3 8.9 4.2 0 5 4.3 3.9 5.6-1.1 1.4-2.8 2.2-2.8 2.2 10.4 10.7 10.9 12.4 21.6 15.5.3.2 1.6-.5 2-.3m30.5 15.6c3.4 1.9 5.7 3 6.1 3.1 1.1.3 6.4 2.3 8.2 2.8 1.7.3 3.1 3.6 5.3 5 2.2 1.4 6.7 4.5 8.1 7.8 1.4 3.3 3.1 2.5 5 3.6 1.7 1.1 5.3 3.1 5.3 3.1-1.2-.3-1.1-1.7-1.1-1.7s-3.9-1.4-1.4-2.5 4.2-1.7 4.2-1.7 1.7-1.1 3.9-1.4c2.2-.3 1.1-3.1 3.6-1.7-1.4-.8-13-6.7-18-11-.5-.3-.9-.8-1.6-1.2"/><path class="st1" d="M244.3 244.8s-3.9-1.4-1.4-2.5 4.2-1.7 4.2-1.7 1.7-1.1 3.9-1.4 1.1-3.1 3.6-1.7c2.5 1.4 1.4 2.8 0 3.1-1.4.3-1.7 2.2-1.7 2.2s-1.7-.8-2.2.8c-.3 1.4-.8 2.5-2.5 2-1.7-.3-1.1 1.6-2.8 1.1-1.2-.6-1.1-1.9-1.1-1.9z"/><path class="st1" d="M177.9 190.3s1.1 3.6 0 3.6-2.5.6-3.9.3m-33.1-31.8s2-.3 3.6 1.1c1.4 1.4 2.2 4.3 3.6 5m3.4 4.9l-.8 2m0 .2s1.1 2.8 3.3 5m26.1 24.3c-5.3-2.8-12.4-7.1-12.4-7.1-5.3-3.3-7.6-4.7-11.5-9m87.7 47.2l5.7 3.6M215.9 222c2.6 2 7.3 3.7 10.1 5.3 1.2.8 1.9 2.2 3 3 3.6 2.3 7.8 3.6 9.3 7.8.8 2.2 3.4.9 5.3 2.3.5.3.9.8 1.4 1.1"/><path class="st1" d="M140.9 156c-6.1.8 0 6.4 0 6.4 3.9 9.6 7.1 8.1 7.1 8.1-1.1 0-1.1 3.3-1.1 3.3 1.7 5.6 5.3 8.9 5.3 8.9 4.2 0 5 4.3 3.9 5.6-1.1 1.4-2.8 2.2-2.8 2.2s-1.1 0-2.5-.8-5.9-8.1-7.1-11.6c-.3-1.1-.3-2.8-1.7-1.7l-1.7-1.1-.3-2s2.8 1.1.8-2.5c-2.2-3.6-1.7-4.5-2.8-6.4-1.1-1.7-4.2-7.5-4.2-8.9 0 0 2.5 1.4 2.8-1.1 0 0-.3-2.8 1.1-3.6 0-.1 3.2 5.2 3.2 5.2zm-15.2-43c-.3 1.1 1.4 2.2 1.4 2.2s.3-1.1-1.4 1.1c-1.7 2 1.4 14.1 1.4 14.1s1.4 1.1 2 2.5c.8 1.4-.3 2.8-.3 2.8 0 1.7 4.5 9.2 4.5 9.2-.3 2.2-1.1 5-1.1 5s-5-9.9-6.1-12.7c0 0-1.7-.6-2.5-1.7s.3-3.9.3-3.9-3.6-12.4-3.1-14.8c0 0-3.6-1.1-3.6-2.8 0 0 2.2-1.1 2.5-2.2 0 0 1.7 1.7 2.5-1.7.6-3.6 2-12.7 3.9-16.3m.2-.2l-1.6-1.4.3-1.9 1.4.5m.1-.2c.8-1.4 1.6-6.2 4-10.1m.2 0l-1.1-1.4m0 .1s1.4-1.1 2.5-2.8c0 0 7.1-11.3 14.1-19.7 7-8.5 3.6-4.5 3.6-4.5S135 77.2 134.3 80c0 0 .8 2.2-1.1 3.3 0 0-3.3 7.5-3.9 8.9m-.2-.3l2.5.8-.8 2.5m.2-.1s-3.1.9-4.2 4.5-1.1 13.4-1.1 13.4"/><path class="st1" d="M142.9 176.5s-3.9-1.1-3.1-3.6c0 0-3.6-4.3-5.3-9.6-1.9-5.1-5.7-12.9-9.6-19.9s-4.5-13.4-7.5-14.8c0 0-3.6-8.5-5.3-9.9s-3.6-3.6-3.6 4.7c0 8.1-.3 23.6 13.4 38.5 13.7 14.8 13 13 13 13s1.8 2.4 8 1.6zm7.2-28.4s4.3-6.1 5-8.2c.6-2.3 2-9.5 1.7-13.5-.2-4-5.6 2-6.8 3.4-.1 0 .1 18.3.1 18.3zm-6.8-88s2.2-7.3 12.7-19.1c10.6-11.8 21.9-21.7 26.7-23 4.7-1.2 9.3-2.3 11.3-2 1.9.2 4.2 3.7.2 5.6s-33.7 19.9-36 21.4c-2.3 1.4-12.7 14.6-12.7 14.6s-1.3 1.8-2.2 2.5z"/><path class="st1" d="M133.5 155.4s1.6 1.1 2.3 0 .5-3.6 1.6-4.7 1.6-3.4 3.4-5.1c1.7-1.7 8.2-10.1 10.4-14.9 2.2-4.8 2.6-7.6 3.6-12.9.9-5.3-6.7 2.2-8.7 3.6-1.4 1.1-9.3 11.2-10.6 15.7-1.2 4.5-3 11.2-3 14-.1 2.9-.3 3.7 1 4.3z"/><path class="st1" d="M147.5 162.8s-1.1-1.6-2.3-2.5-3.7-3.7-4.2-4.3c0 0 1.1-7.6.5-16.3-.5-8.9 3-16.6 3.9-19.4s2.3-5.9 2.3-5.9 2-3.4 3.4.5c1.2 3.9 1.9 16 1.7 19.7-.2 3.7-1.7 17.4-2.6 20-1 2.8-1 7.2-2.7 8.2zm-2.8-101.5s2.3-5.4 8.7-11.8c1.7-1.7 10.6-12.1 15.1-15.2 6.2-4.3 21-12.6 25.6-13.2 2.3-.3 10.1.3 5 4s-30.4 21.9-39.4 25c-.1 0-15 11.2-15 11.2z"/><path class="st1" d="M134.6 81s.8.3 2-1.7c1.4-2.2 5.1-9.5 6.7-14 1.6-4.3 7.3-18.2 18-26.7 1.7-1.4 3.9-3 3.6 3.7s-3.7 10.6-5 11.8c-1.2 1.2-5.4 9.9-7 12.7-1.4 2.8-12.9 16.9-19.9 16.6.2.1.8-.7 1.6-2.4zm-5-1.8s-1.6-1.1-1.1-2.6c.5-1.6 3.4-13.7 6.8-21.6 3.6-7.9 12.4-23.1 18.5-27.6 1.4-1.1 5.3-4.3 3.9 2.3-1.4 6.5-5.1 14.9-10.1 21.7-5 6.8-11.2 14.8-12.3 16.1-.9 1.4-4.3 7.6-4.2 9.9.2 0-.4 1.1-1.5 1.8z"/><path class="st1" d="M126.2 114.2s.3.6.9.9c.5.2 6.2-5.4 10.2-12.4 3.7-6.4 6.1-10.6 8.2-16 2.3-5.3 6.1-10.9 6.2-20.7 0-3.1-1.6-3.3-3.3-1.9-1.2 1.1-9.5 8.9-13.5 18.6-4 9.6-7.1 24.8-7.6 26.9-.2 2 0 2.9-1.1 4.6z"/><path d="M120 111.6s-1.4 2.2-2.5 2.2c0 0-4-4.2-3.7-16.6.3-12.4 3.6-37.3 18.5-48.6 0 0 0 14.3-2.3 21.9-4.8 15.7-8.1 36-10.1 41.3v-.2h.1z" fill="none"/><path class="st1" d="M120 111.6s-1.4 2.2-2.5 2.2c0 0-4-4.2-3.7-16.6.3-12.4 3.6-37.3 18.5-48.6 0 0 0 14.3-2.3 21.9-4.8 15.7-8.1 36-10.1 41.3m-9.1 18.6c.8 1.1 3.3 8.1 4.7 11.6 1.4 3.6 8.9 17.2 12.7 20.8 3.9 3.6 6.7 7.8 7 8.9.3 1.1 2.8 3.6 5 3.6m-5.6-19.7s-.6-10.2 7.1-20.7m6.4-12.1s-1.9 13.7-2.2 17.9c-.2 4.2-1.2 17.5-1.7 18.8m10.2-29.7s-1.2 3.7-1.7 5M118.6 113s-1.4-14.8.2-24.5c1.9-11.8 6.5-23.3 6.5-23.3m22.5 9.9s-14.9 29.8-20.5 37.1m2.6-34.4s5-15.7 7.3-20.8c2.5-5.6 12.9-21.4 12.9-21.4m7.4 5.5s21.4-19.4 28.7-23M190 27c-1.1.6-8.1 4-24.5 16.3m-4.5.1s-6.7 10.2-13 21.3m111.1-36.9c-1.1-1.2-2.6-5.4-5.3-4.8-2.6.8-.9 1.4-.3 2.3.5.9.5 1.7-.6 1.6-1.1-.2-1.7-.6-2.6-2.6-.9-1.9-4-7.1-10.4-7.6s-3.9-.3-3.4 1.1c0 0-2.6-2-4.8-2.3-2.2-.2-5.3-.5-3.9 1.2 0 0-7-1.1-7.1 2.6s4.5 4.3 4.5 4.3-5.4 6.4 9.9 5c0 0-3.3 7.9 10.9 6.5 0 0-2.2 6.1 3.9 3.1"/><path class="st1" d="M256 31.6s-3.4-3.3-5-1.4c-1.6 1.7.2 4.3 1.1 4.5 0 0-3.6 1.9-1.9 5.4.6 1.2 1.4 1.9 2.2 2.6.6.8 1.9.9 2.5 1.4 0 0 .2 1.6-.3 2-.5.6-3.7 2.3-1.4 4.3 2.3 2.2 1.2 1.7 3.6 1.9 2.3.2 3-.2 3.1 1.1s.3 3.3-.3 3.7c-.6.5-1.7 1.9 0 2.6 1.7.8 2.2.3 2.2 1.2 0 .9 1.4.9 3 .9s2.8.5 4.3 1.4c1.6.9 11.6 3.9 11.6 3.9s-8.2-29.8-9.5-31.4c-1.2-1.6-5.4-5.9-7.5-7.1-1.9-1.2-5.6-2.6-6.2.9-.7 4.2-1.5 2.1-1.5 2.1z"/><path class="st1" d="M270 62.5c-.9-1.6-2.6-2.3-3.7-3.4s-.9-.5-1.4-.2c-.6.3-3-1.1-3.7-2.2-.8-1.1-3.6-1.9-2-4.5s2.6-1.4 3.6-1.9c0 0-2.8-.6-3.4-1.6-.5-1.1-2.2-2.6-2.5-3.6s-1.1-2.8 1.2-3.6c2.3-.6 2.3-1.6 2.3-1.6s-3.3-4.5-1.1-6.8 7.5-1.2 9.9.3c0 0 4.2-5.6 8.4 8.1 0 0 1.1-.9 1.2-1.9.2-1.1 3.1-2.8 4.2 2.8s1.2 9 1.2 9"/><path class="st1" d="M286.3 79.3s-1.4-4.5-2.5-5.1c-1.1-.5-1.1 0-1.7.9-.6.9-.5 1.9-1.2 2.6-.8.8-1.9.9-1.7-.8.2-1.6.8-2.3 1.2-3.3.5-.9 2.6-4 1.4-6.1-1.2-1.9-2.5-3.1-3.1-3.1-.8 0-2.6.9-2.6 3.7 0 0 .5-1.9 0-2.6-.6-.8-3.6-2.5-4.8-3.4-1.2-.9-5-.9-4.8 1.9.2 2.8.2 4.2.2 4.2s-4.5-1.1-.2 9.3c0 0-4.2 1.6.8 5.6 5 4 7.9 6.7 8.9 8.1.9 1.4 4.3 8.5 5 10.4.6 1.9 1.9 7.1 6.2 11.3 0 0-1.1-1.9-.6-2.5.6-.6 1.6-2.6 1.7-3.4.2-.8-.2-5.1-1.9-3.9 0 0-.2-5.6.3-6.8s.5-7.3-3.6-6.4c0 0 1.1-4.8 2.2-6.1.8-.6.9-3.3.8-4.5z"/><path class="st1" d="M294.2 111s4.3-1.7 4-4c-.3-2.3-2.6-7.1-5.3-8.5-2.6-1.4-.6-4 .8-3.1 0 0-1.7-2.3-3-3-1.2-.8-5-5-2.8-6.4 2.2-1.4 2.2-1.4 2.3-1.6.2-.2-2.2-.5-3-3.6-.9-3-2.6-4.2-.5-3.9 0 0-5.1-3.6-4.2-5.4.9-1.9.8-2.2 2.3-1.9 0 0-5.6-1.6-4.2-5.6 1.4-4 2.3-4 2.3-4l.2-.6s-1.1-5.1.5-5.4c1.6-.3.6-.6.6-.6s.3-1.7 1.6-1.4c0 0-.2-2.8 1.9-.9 2.2 1.9 3.3 4.3 3.3 4.3s6.8 1.6 7.6 11.2c0 0 3.9.9 3.6 9.8 0 0 1.1 1.9-.3 5.4-1.2 3.4-.2 2.2.8 1.6.9-.5 3.7-4 3 1.7-.8 5.9-1.4 7.3-2.3 8.9 0 0 1.1.2 1.2 1.2.2 1.1-.3.8-1.2 2.8s-1.6 3.4-1.6 5.3c-.2 7.1-2.6 8.2-2.6 8.2l-4.3 1.9V111h-.7zm-20.8 64.1s3.3 0 3.3-2.3-.8-5.3-.2-6.1c.6-.8.3-2.3 1.7-1.6 0 0 3.6-.5 3.4-1.7-.2-1.2-.2-1.7-.3-2.5-.2-.8.9-2.5 1.9-2.5 1.1 0 1.9-.9 1.6-1.7-.3-.9-2.3-3.4-2-5 .2-1.6-.6-3.4.2-4.2.8-.9 1.2-1.1 1.9-1.2.8-.2 1.6-2.5 1.6-3.7s-.3-2.3-.3-3c0-.8.9-2.2 1.7-2.2.9 0 1.4-1.1 1.9-1.4.5-.3.9-.3 1.9-.3 1.1 0 1.4-1.6 2.3-2 .9-.6-.2.3 1.9-.3 2.2-.8 3-2 3.3-2.6.2-.6 3.6-1.1 3.9.9.3 1.9.3 4 .2 4.8 0 0 3.6 4.7 2 10.6-1.4 5.9-4.3 8.1-4.3 8.1s2.8-.2 1.2 3.6c-1.6 3.7-5.4 8.5-9.8 10.2 0 0 2.3.9.3 2.6-1.9 1.7-5.3 2.6-5.3 2.6s1.1 1.7-4.8 1.6c0 0 1.4 1.4-6.1 1.7l-4.3-.2 1.2-2.2z"/><path class="st1" d="M266.7 129.6s0 .8.9.9c.9.2 2.5.2 2.5 1.9s-.5 4-.2 6.5.8 12.1-.2 14.3c-.9 2.2-1.7 6.7-1.6 9.2 0 0-1.2-4.7-3.4-7.6m9.8-5.1s-5.1 5.9-5.6 7.6m2.6-30c-1.2 0-3.6.2-2.3 3.6m4.5 2.1s-2.6 5-3.4 6.1m-1.3-2.2s-1.7 1.1-.5 2.6c.8.9.6 2.5 0 3.4-.5.8-1.1 2.8-.2 3.6.9.6 1.6 1.2 1.6 2.3m4.4 27.1s10.1-3.6 15.5-17.7 8.5-20.8 9.6-22.5m-4.1.8s.5 2.8 0 4c-.6 1.2-.2 3.9-.2 3.9m-2 6s1.2-1.9 2.8-2.5c1.6-.6 3-2.6 3-2.6m-10-5s-.3 4.7-.2 5.4c.2.9-.2 4.3 0 5.4.2 1.1 1.1 6.2.6 7.5 0 0 1.2-1.1 1.9-1.6.8-.5 2.2-1.4 2.5-1.9s2.5-1.4 3.1-1.4m-1.7 7.1c-.8.3-3.4 1.7-4.3 1.7-1.1 0-2.8 1.2-3.6 1.7m-4.2.5s1.2 3 .3 4.2m12.4-35.6s1.1-3.9 1.9-4.8c.9-.9 3-3.1 3-4.5.2-3.3 2.3-3.3 2.6-5.4m-4 2.6s1.6 3.3.9 4.3m4.2.4c-.3.5-.8.9-1.6 1.1-.9.2-2.3.9-3 2.3-.8 1.4-3 2.6-3 2.6m-.3-6.3c0 .9.5 4.3 0 5.7m-9.2-74.2c0 .5-.2 1.9.3 3 .8 1.4 5.4 10.4 6.2 12.6.6 2.2 4.5 11.6 5 16.8.3 5.1 1.4 15.7 1.1 16.9m-3.7-12.5c1.1.8 3.4 3.7 3.4 4.8m3.2-11.3c-.6.9-1.1 1.2-1.2 1.9-.2.8-1.7 3.1-2.3 3.9m-7.5-9.9c1.6.9 6.5 5.4 7 6.7m1.1-14.7c-.6.9-1.1 2.8-1.2 3.9-.2 1.1-.8 3.9-.8 4.5m-10.1-11.8c1.6 1.1 7.3 5.1 7.9 6.2m-1.9-14.9c-.2.9-.6.9-.8 2.3-.2 1.4.2 3.7 0 4.7m-6.6-7.4s.5.9 1.1 1.7c.5.9 2.6.8 3.7 2.3m-21.1.6c.8.9 6.2 15.7 7.9 20.3 1.7 4.7 8.1 21.6 8.2 22.4m-3.6-11.2s.3-.9.9-1.6c.6-.8 1.2-2.8.9-3.6m-5.6-4.8s.6-2.6.9-3.6c.2-.3 2.2-4.2 2-4.3m-6.4-1.5s-.2-1.2 0-2.5c.2-1.2 0-1.7.8-2.6.8-.9 1.2-1.7 1.4-2.3m-10.1-1.8c1.4.9 5 4.2 6.1 6.2m-3.4 4s6.1 2.6 7.5 5.4m-13.4-49.3c1.1 1.1 9.6 12.9 10.4 14.6.9 1.7 6.4 11.3 6.4 11.3m-13.3-26.2c.2.9 0 1.2.3 2.2.3.9.2 2.6.2 3.3m2.6-3.5c.6 1.1 1.6 1.7 1.7 4.2.2 1.6 0 2.8-.6 4.3m5.9.1c.3 1.1.9 6.2-.6 8.2m-17.2-10.4c1.9.9 2.6 1.4 5 2 2.3.8 8.9 3.4 9.8 4.3m-10.3 3.3c.9 0 2.6.5 4.3 1.2 1.7.8 7.1 3.3 9.8 3.4m-25.8-26s6.8 7.1 7.1 7.8m-3-7.7v3.7m-3.6 1.3c1.7.6 4.7 1.7 5.7 1.9m-31.5-18.8c1.7.9 20.8 9.6 23.1 9.9m-7.9-9c1.4.6 5.3 4.7 5.1 7.6m-8.9 2.2c.5-.5 1.4-.9 3.4-1.1 1.9-.2 3.1-.9 3.7-1.2m-13.2-11.2c.9.9 3.6 3.1 3.7 4.3.2 1.2.9 2.5 1.4 2.8.5.3 1.2.9 1.2.9h-2c-2 0-6.5 0-7.8.2M209.6 220c-1.4.6-23.4 6.1-27.8 5.7-4.2-.3-30 2-33.2 2-3.1 0-3.6-.3-5.6-1.4-3.6-1.7-26.1-16.6-28.9-19.7-1.6-1.7-3.3-3.3-1.4-5.7 1.7-2.5 3.9-10.2 3.9-12.4 0-2 .8-4.2 2.5-4.5s6.4.8 8.5 1.1c2 .3 3.6-.3 3.6-.3l1.1-3.9s3.6.6 3.3 4.5c-.3 3.9-.8 12-.8 12 1.4 1.1 13.4 9.2 15.2 10.2 1.7 1.1 2.5 1.1 3.9.8s29.7-3.9 33.5-5c3.9-1.1 14.8-1.4 16.8-1.9"/><path class="st1" d="M132.1 180.9s5 5.4-2.5 6.1m5 10.5s-10.6-7.3-13-8.9c-3.3-1.9 3.7-2.5 8.2-1.7m154.5 10.6c-1.4 1.1-14.9 10.2-16.6 11.3-1.7 1.1-2.5 1.1-3.9.8s-28.3-5-32.1-6.1c-3.9-1.1-14.4-.8-16.6-1.1s-5.6 1.4-6.7 1.7c-1.1.3 3.6 8.5 3.6 8.5s-3.1 6.1-1.7 6.7c1.4.6 22.5 6.7 26.9 6.4 4.2-.3 27.2 3.6 30.3 3.6 3.1 0 3.6-.3 5.6-1.4 3.6-1.7 28.9-18 31.8-21.1 1.4-1.7 3.1-3.3 1.4-5.7-1.7-2.5-3.9-10.2-3.9-12.4 0-2-.8-4.2-2.5-4.5s-6.4.8-8.5 1.1c-2.2.3-3.6-.3-3.6-.3l-1.1-3.9s-3.6.6-3.3 4.5c.4 3.6.9 11.9.9 11.9z"/><path class="st1" d="M286.7 180.9s-5 5.6 2.5 6.2m-4.9 10.4s10.6-7.3 13-8.9c3.3-1.9-3.6-2.3-8.1-1.4m-81.3 13.4c4.2-2 6.5 0 7.9 2 2.5 3.9 5.4 7 5.9 10.4.2 1.4 0 2.3-1.1 4.2-1.1 1.7-3 4.5-4.5 3.6-.3-.2 0 .5 0-.3-1.1 4.3-4.5 4.7-8.2 6.7-3.7 2.2-5.9-6.1-8.9-4 3.4-2 7.9-2.5 11.6-3.4 0 1.1-2.8.5-2.8 1.6m-7.9-18.8c2-.3 4-1.4 7.8-1.9"/><path d="M128 202.4c.3-.5 1.2-1.6 1.4-2 .2-.6-.3-1.1-.6-1.2l.3-.5 6.1 4.3-1.6 2.2-.3-.2c1.1-1.9.5-2.5-.8-3.4l-.9-.6c-.5-.3-.3-.3-.8.3l-2.5 3.6c1.6 1.4 2.5.6 3.3-.3l.3.2c-.5.6-1.1 1.4-1.6 2-.5.6-.9 1.2-1.2 1.9l-.3-.2c.9-1.7.5-2.2-.8-3.1l-1.7 2.5c-.3.5-.8 1.2-.9 1.7 0 .8.6 1.4 1.2 1.7 1.2.9 2.2 1.2 3.7-.3l.3.2-1.9 2.3-6.7-4.8.3-.3c.5.3.9.6 1.4.3s1.2-1.4 1.6-1.9l2.7-4.4zm14.8 11.1c-.2-1.2-.2-2.3-1.2-2.6v-.5c.8.2 1.4.5 2 .6.8.2 1.4.3 2.2.5v.5c-.5-.2-1.2-.3-1.4.5-.2.6 0 3.6.2 4.3l.5 4.8 2.3-3.7c.5-.8 2-3.3 2.2-4.2.3-.9-.3-1.1-.9-1.1l.2-.5c.6.2 1.1.3 1.6.5s1.1.2 1.6.3l-.2.5c-1.4-.3-1.9 1.1-2.6 2.2l-5.1 8.2-.5-.2-.9-10.1zm30.4.4c-.2-.6-.3-1.9-.5-2.3-.3-.6-.9-.5-1.4-.5l-.2-.5c.8 0 1.4-.2 2.2-.2.8-.2 1.6-.3 2.3-.3v.5c-.5 0-1.1.2-1.2.8 0 .5.2 1.9.2 2.5l.6 5.4c.3 2.3.6 2.6 2.6 2.5.8-.2 1.6-.2 2-.8.8-.6.8-1.4.8-2.3h.3l.3 3.3h-.8c-2.6.5-5.1.8-7.8 1.1v-.5c.5 0 1.1-.2 1.2-.8.2-.5 0-1.9-.2-2.5.2.1-.4-5.4-.4-5.4zm9.5-1.2c0-.6-.3-1.9-.5-2.5-.3-.6-.9-.5-1.4-.5v-.5c.8 0 1.4-.2 2.2-.2.8-.2 1.4-.3 2.2-.3v.5c-.5 0-1.1.2-1.2.8 0 .6.2 1.9.2 2.5l.6 5.1c.2.6.3 1.9.5 2.5.3.6.9.5 1.4.5v.5c-.8 0-1.4.2-2.2.2-.8.2-1.6.3-2.3.3v-.5c.5 0 1.1-.2 1.2-.8.2-.6-.2-1.9-.2-2.5l-.5-5.1zm12.4-5.1h.2l.6 3.6h-.3c-.5-2-1.9-3.3-3.7-3-2.6.3-3.1 3.7-2.6 6.5s1.7 5.6 4.3 5.1c2.2-.3 2.6-2.2 2.8-4.5h.3l.6 4h-.2l-.5-.9c-.9 1.1-1.9 1.6-3.1 1.9-3.1.5-5.4-1.7-6.1-5.4-.5-3.7 1.4-6.7 4.3-7.1 1.2-.2 2 .2 3.3.8.1-.1.1-1 .1-1zm33.6 4.9c.2-.6.3-1.9.2-2.3-.2-.6-.8-.8-1.2-.9v-.5c.8.2 1.4.3 2.2.5s1.6.2 2.3.3l-.2.5c-.5 0-1.1-.2-1.4.5-.3.5-.5 1.9-.6 2.3l-.8 5.1c-.2.6-.3 1.9-.2 2.5.2.6.8.8 1.2.8v.5c-.8-.2-1.4-.3-2.2-.5-.8-.2-1.6-.2-2.3-.3v-.5c.5.2 1.1.2 1.4-.5.3-.5.5-1.7.6-2.3l1-5.2zm13.6 1.4l-.5-.2c.2-1.7-.3-2.3-1.7-2.5-.6-.2-1.6-.3-1.6.3l-1.4 8.5c-.2 1.4 0 1.9 1.4 2.2v.5c-.9-.2-1.7-.3-2.5-.5s-1.6-.2-2.5-.3v-.5c1.6.2 1.9-.3 2-1.6l1.2-8.7c.2-.5-.6-.6-1.2-.6-1.6-.3-2.3-.3-2.6 1.9h-.3l.5-2.8 9.5 1.6-.3 2.7zm12.6 2.5c.2-.6.3-1.9.3-2.5-.2-.6-.8-.8-1.2-.9v-.5c.8.2 1.6.3 2.2.5.8.2 1.6.2 2.3.3v.5c-.5-.2-1.1-.2-1.4.3s-.5 1.9-.6 2.3l-.9 5.4c-.5 2.3-.2 2.8 1.7 3.1.8.2 1.6.3 2.2 0 .9-.5 1.1-1.1 1.4-2h.3l-.6 3.1c-.3 0-.6-.2-.8-.2-2.6-.5-5.3-.9-7.9-1.2v-.5c.5 0 1.1.2 1.4-.5.3-.5.5-1.7.6-2.3l1-4.9zm9.8 1.9c0-.6-.2-1.9-.3-2.3-.3-.6-.9-.6-1.4-.6v-.5c.8 0 1.6 0 2.3-.2.8 0 1.6-.2 2.3-.3v.5c-.5 0-1.1 0-1.2.8-.2.5 0 1.9 0 2.5l.3 5.1c0 .6.2 1.9.3 2.3.3.6.9.6 1.4.6v.5c-.8 0-1.6 0-2.2.2-.8 0-1.6.2-2.3.2v-.5c.5 0 1.1 0 1.2-.8.2-.5 0-1.9 0-2.5l-.4-5zm13-9c-.9-.5-1.4-.5-2 .2l-.2-.3c.5-.3.8-.5 1.2-.8.3-.3.6-.5.9-.8l10.9 3.7-3.1-4.2c-.5-.6-1.2-1.7-1.7-2.2-.8-.8-1.1-.5-1.7 0l-.3-.3 1.4-.9c.5-.3.8-.8 1.2-1.1l.3.3c-.5.5-.8.6-.5 1.4.3.6 1.4 2 1.7 2.6l4.7 6.4-.5.3c-.6-.2-1.1-.5-1.7-.6l-10.1-3.4 3.6 5c.5.5 1.2 1.6 1.7 2 .6.5 1.1.2 1.6-.2l.3.3c-.5.3-1.1.6-1.6 1.1-.5.3-.9.8-1.4 1.1l-.3-.3c.5-.5.9-.8.6-1.6-.3-.6-1.1-1.6-1.4-2.2l-3.6-5.5z" fill-rule="evenodd" clip-rule="evenodd" fill="#fff"/><path class="st0" d="M124.6 195.5c-.5-.3-1.1-.8-1.6-1.1-.6-.6-1.4-1.1-2-1.6l-.3.3c.5.3.9.6.6 1.2-.2.5-1.1 1.6-1.4 2l-3.1 4.2c-.3.5-1.2 1.6-1.6 1.9-.5.5-1.1 0-1.4-.3l-.3.3 1.9 1.4c.6.5 1.1.9 1.6 1.4l.3-.3c-.3-.3-.9-.6-.6-1.2.2-.5 1.1-1.6 1.4-2l1.2-1.7c.6.5.6.5.5 1.4l-.3 4.5v1.2c.3.3.6.5.9.6.3.3.8.6 1.1.9l.3-.3c-.6-.6-.6-.9-.6-1.7l.2-5.4c1.4.8 3 .8 4.2-.9 1.5-2.4.4-3.8-1-4.8zm-.8 3.5c-1.6 1.9-2.5 1.2-3.9.2l2.6-3.4c.2-.2.3-.5.5-.5s.6.5.8.6c1.1.8 1 2 0 3.1zm16.2 7.8c-.6-.5-1.2-.8-1.7-1.2l-1.9-1.4-.3.3c.5.3.9.6.8 1.2-.2.5-.9 1.6-1.4 2l-3 4.2c-.3.5-1.1 1.6-1.6 1.9-.5.5-1.1.2-1.4-.2l-.2.3c.6.5 1.2.8 1.9 1.2l1.9 1.4.3-.3c-.5-.3-1.1-.6-.8-1.4.2-.5.9-1.6 1.2-2l1.2-1.9s.6.5.8.6c1.6 1.1 3.6 1.7 5.1-.5 1.6-1.6.5-3.3-.9-4.2zm-.5 3.6c-1.1 1.6-2 1.7-3.1.9-.2-.2-.5-.3-.6-.5l2.3-3.4c.5-.6.5-.6 1.2-.2 1.2.7 1.2 1.8.2 3.2zm21 8.2c-.6-.5-1.4-.5-2.3-.5 1.1-.6 2.2-1.4 1.9-3.1-.3-2.5-2.5-2.6-4.2-2.3-.6.2-1.2.2-1.7.3-.8 0-1.4.2-2.2.2v.5c.5 0 1.1-.2 1.4.5.2.5.5 1.9.5 2.3l.8 5.1c0 .6.3 1.9.2 2.5-.2.6-.8.8-1.2.8v.5c.9-.2 1.7-.3 2.5-.5.6 0 1.4-.2 2-.2.9-.2 2-.2 2.8-.9.8-.6 1.2-1.6 1.1-2.8-.2-1-.8-1.8-1.6-2.4zm-5.1-4.2c0-.2-.2-.6 0-.8.2-.2.6-.2.8-.2 1.2-.2 2 .5 2.2 1.9.2.8.2 1.6-.5 2-.5.5-.9.5-1.6.6l-.5.2-.4-3.7zm2.9 9.5c-.6.2-1.2.2-1.6-.5-.2-.5-.3-1.6-.5-2l-.3-2.3h.5c.8-.2 1.6-.3 2.2 0 .8.3 1.2 1.1 1.2 2 .4 1.5-.2 2.6-1.5 2.8zm13.4-4.2c-.2-1.1-.6-1.9-1.4-2.3-.6-.5-1.4-.5-2.3-.5 1.1-.6 2-1.4 1.9-3.1-.3-2.3-2.5-2.6-4-2.3-.6 0-1.2.2-1.7.3-.8 0-1.4.2-2.2.2v.5c.5 0 1.1-.2 1.4.5.2.5.3 1.9.5 2.3l.6 5.1c0 .6.3 1.9.2 2.5 0 .6-.8.8-1.2.8v.5c.8-.2 1.7-.3 2.5-.5.6-.2 1.4-.2 2-.2.9-.2 2-.2 2.6-.8.8-.7 1.2-1.8 1.1-3zm-6.7-6.5c0-.2-.2-.6 0-.8 0-.2.6-.2.8-.2 1.2-.2 2 .5 2.2 2 .2.8 0 1.6-.5 2s-.9.5-1.6.6h-.5c.1.1-.4-3.6-.4-3.6zm2.9 9.4c-.6.2-1.2.2-1.6-.5-.3-.5-.5-1.6-.5-2l-.3-2.3.5-.2c.8 0 1.6-.2 2.2.2.8.3 1.2 1.1 1.4 2 .2 1.7-.3 2.7-1.7 2.8zm40.1-5.1c-.5 0-.9 0-1.4-.5-.3-.3-.8-1.4-1.1-1.9l-4.3-8.7h-.5l-1.2 7.5c-.3 1.2-.5 2.5-.8 3.7-.2.9-.5 1.2-1.2 1.6v.5c.6-.2 1.1-.2 1.6-.3.6 0 1.1-.2 1.7-.2l-.2-.5c-.5 0-1.2.2-1.4-.6-.2-.8.2-2.2.3-3l.2-.5 3.7-.6.9 1.7c.2.5.5.9.5 1.4.2.8-.6.8-1.1.9v.5c.8-.2 1.4-.3 2.2-.3.8-.2 1.4-.2 2.2-.3l-.1-.4zm-8.2-3.7l.9-4.8 2.2 4.3-3.1.5zm50.9 9.8c-.2-.5-.3-1.6-.5-2.2l-1.7-9.8h-.5l-3.4 6.8-1.9 3.3c-.5.9-.8 1.1-1.7 1.1v.5c.6 0 1.1.2 1.6.2.6.2 1.1.2 1.7.3v-.5c-.5-.2-1.2-.2-1.1-.9.2-.8.8-2 1.2-2.6l.2-.5 3.9.6.3 2c0 .5.2 1.1.2 1.4-.2.6-.9.5-1.4.5v.5c.8.2 1.6.2 2.2.3.8.2 1.4.3 2.2.5v-.5c-.7-.4-1.1-.6-1.3-1zm-5.6-5l2.3-4.3.8 4.8-3.1-.5zm36.5.9c-.5.2-.9.3-1.6 0-.5-.2-1.4-1.1-1.7-1.4l-7.3-6.5-.5.3 1.4 7.5c.2 1.2.5 2.5.6 3.7.2.9 0 1.4-.6 1.9l.2.5 1.4-.9c.5-.3 1.1-.5 1.6-.8l-.2-.3c-.5.2-1.1.6-1.4 0-.3-.6-.6-2-.8-2.8l-.2-.5 3.4-1.9 1.4 1.4c.3.3.8.8.9 1.1.3.6-.3.9-.8 1.2l.2.3c.6-.3 1.2-.8 1.9-1.2.6-.3 1.4-.6 2-1.1l.1-.5zm-9-.3l-.9-4.8 3.7 3.3-2.8 1.5zm27.6-13.8c-.5.3-.9.5-1.4.3-.5-.2-1.4-.9-1.9-1.2l-8.1-5.7-.5.3 2.3 7.3c.3 1.2.6 2.3 1.1 3.6.3.9.2 1.4-.5 1.9l.3.3c.5-.3.8-.6 1.2-1.1l1.4-.9-.3-.3c-.5.3-1.1.8-1.4.2-.5-.6-.8-2-1.1-2.6l-.2-.5 3.1-2.2 1.6 1.2c.5.3.9.6 1.1.9.5.6-.2 1.1-.6 1.2l.3.3c.6-.5 1.2-.9 1.7-1.4.6-.5 1.2-.8 1.9-1.2.2-.1 0-.4 0-.4zm-9 .6l-1.6-4.7 4 3-2.4 1.7zm386.7 122.6c0-1.2.6-1.9 1.7-1.9h21.9c4.3 0 6.5-1.2 6.5-3.7v-2.8c0-2.8-2.6-4.2-7.8-4.2h-9.6c-8.4 0-12.4-2.2-12.4-6.7V306c0-5 3.7-7.6 11-7.6h5.3c1.2 0 1.9.6 1.9 2 0 1.2-.6 1.9-1.9 1.9h-6.1c-3.6 0-5.4 1.4-5.4 4v2.5c0 2.3 2.3 3.4 7 3.4h9.8c7.5 0 11.8 1.9 12.9 5.4l7-24.8-25.6-26.2-35.6 9-9.9 35.2 25.6 26.2 25.5-6.4h-19.9c-1.2 0-1.9-.6-1.9-2zm45.7-21.3c0 1.2-.9 2-2.6 2-1.6 0-2.5-.6-2.5-2 0-1.2.8-2 2.5-2 1.7.2 2.6.8 2.6 2zm-.6 21.9c0 1.1-.6 1.7-1.9 1.7-1.2 0-1.9-.6-1.9-1.7v-16.1c0-1.1.6-1.6 1.7-1.6 1.2 0 1.9.5 1.9 1.6v16.1h.2zm30.7-4c0 3.6-2.6 5.4-7.8 5.4h-15.7c-1.1 0-1.7-.5-1.7-1.6s.6-1.6 1.7-1.6h16.3c2.2 0 3.4-.8 3.4-2.3v-1.2c0-1.6-1.2-2.2-3.7-2.2h-8.5c-5.7 0-8.5-1.7-8.5-5.1v-1.4c0-3.3 2.8-5 8.2-5h4.3c1.1 0 1.6.5 1.6 1.6s-.5 1.6-1.6 1.6h-5.3c-2.5 0-3.7.6-3.7 1.9v1.2c0 1.4 1.4 2.2 4.3 2.2h8.9c5.3 0 8.1 1.7 8.1 5.3v1.2h-.3zm10.6-11.8v15.8c0 1.1-.6 1.7-1.9 1.7s-1.9-.6-1.9-1.7v-15.8h-1.9c-1.1 0-1.6-.5-1.6-1.6 0-.9.5-1.6 1.6-1.6h1.9v-4.8c0-1.1.6-1.7 1.9-1.7 1.2 0 1.7.6 1.7 1.7v4.8h7.5c1.1 0 1.6.5 1.6 1.6s-.5 1.6-1.6 1.6h-7.3zm38.6 7.1c0 1.1-.6 1.7-1.7 1.7h-21.9v2.5c0 1.9 1.9 2.8 5.7 2.8h4c1.1 0 1.6.5 1.6 1.6s-.5 1.6-1.6 1.6h-3c-6.8 0-10.2-2-10.2-6.2v-7.8c0-4.2 3.4-6.2 10.2-6.2h8.4c5.7 0 8.5 1.9 8.5 5.4v4.6zm-23.4-1.4h19.9V316c0-1.9-1.4-2.8-4.2-2.8h-9.9c-3.7 0-5.7.9-5.7 3v2.9h-.1zm68.2 10.1c0 1.1-.6 1.7-1.9 1.7s-1.9-.6-1.9-1.7v-12.9c0-1.9-2-3-6.1-3-4.8 0-7.1 1.1-7.1 3.4v12.4c0 1.1-.6 1.7-1.7 1.7-1.2 0-1.9-.6-1.9-1.7v-12.4c0-2.3-2.3-3.4-7.1-3.4-4 0-6.1.9-6.1 3v12.9c0 1.1-.6 1.7-1.9 1.7s-1.9-.6-1.9-1.7v-12.4c0-4.3 3.3-6.4 9.8-6.4 4.8 0 7.8 1.1 9.2 3.4 1.2-2.2 4.2-3.4 8.9-3.4 6.5 0 9.8 2.2 9.8 6.4v12.4h-.1zm34.8-4.5c0 4-3 5.9-8.7 5.9h-10.9c-6.1 0-9.2-1.9-9.2-5.7v-2.6c0-4 3-5.9 9-5.9h16.1c-.3-2-1.7-3-4.5-3h-4.5c-.9 0-1.4-.5-1.4-1.6 0-.9.5-1.6 1.4-1.6h3.9c5.7 0 8.7 2 8.7 6.1l.1 8.4zm-3.6-5.3h-17.1c-3 0-4.3.9-4.3 2.8v2.8c0 1.7 1.6 2.6 4.7 2.6h12.3c3 0 4.5-1.2 4.5-3.9v-4.3h-.1zm57.6 8.7c0 .9-.3 1.6-.8 2s-1.1.6-1.7.6c-.3 0-.6 0-.9-.2-.3-.2-.6-.3-.9-.6l-23.4-21v20.2c0 1.1-.6 1.7-2 1.7-1.2 0-2-.6-2-1.7v-22.8c0-.8.3-1.4.8-1.9.5-.3 1.1-.6 1.7-.6.3 0 .8 0 1.1.2.3.2.6.3.9.6l23.3 20.7v-19.9c0-1.1.6-1.7 2-1.7 1.2 0 1.9.6 1.9 1.7v22.7zm34.8-3.4c0 4-3 5.9-8.7 5.9h-10.9c-6.1 0-9.2-1.9-9.2-5.7v-2.6c0-4 3-5.9 9-5.9h16.1c-.3-2-1.7-3-4.5-3h-4.5c-.9 0-1.4-.5-1.4-1.6 0-.9.5-1.6 1.4-1.6h3.9c5.7 0 8.7 2 8.7 6.1v8.4zm-3.4-5.3h-17.1c-3 0-4.3.9-4.3 2.8v2.8c0 1.7 1.6 2.6 4.7 2.6h12.3c3 0 4.5-1.2 4.5-3.9v-4.3zm31.5-6h-18.6c-1.1 0-1.6-.5-1.6-1.6s.5-1.6 1.6-1.6h22c.8 0 1.2.2 1.7.6.5.3.6.8.6 1.2 0 .3-.2.6-.3.9-.2.3-.5.6-.8.8l-20 13.7h20.5c.9 0 1.6.5 1.6 1.6s-.5 1.6-1.6 1.6h-24.1c-.6 0-1.2-.2-1.7-.6-.5-.3-.6-.8-.6-1.4 0-.3.2-.6.3-.9.2-.3.5-.6.9-.8l20.1-13.5zm17.1-6.1c0 1.2-.9 2-2.6 2-1.6 0-2.5-.6-2.5-2 0-1.2.8-2 2.5-2 1.6.2 2.6.8 2.6 2zm-.7 21.9c0 1.1-.6 1.7-1.9 1.7-1.2 0-1.9-.6-1.9-1.7v-16.1c0-1.1.6-1.6 1.7-1.6 1.2 0 1.9.5 1.9 1.6v16.1h.2zm33.7-4.8c0 4-3.3 6.2-9.6 6.2h-7.5c-6.5 0-9.8-2-9.8-6.2v-7.9c0-4.2 3.3-6.4 9.9-6.4h7.3c6.4 0 9.6 2 9.6 6.2v8.1h.1zm-3.8-8.2c0-2-1.7-3-5.3-3h-8.4c-3.7 0-5.7 1.1-5.7 3.3v7.9c0 2 1.9 3.1 5.7 3.1h8.4c3.4 0 5.3-1.1 5.3-3.1v-8.2zm38.1 13c0 1.1-.6 1.7-1.9 1.7-1.2 0-1.9-.6-1.9-1.7v-13.4c0-1.7-1.7-2.5-5-2.5h-9.3c-3.4 0-5.1.8-5.1 2.5v13.4c0 1.1-.6 1.7-1.9 1.7-1.2 0-1.9-.6-1.9-1.7v-13.4c0-3.7 3.3-5.6 9.8-5.6h7.1c6.5 0 9.9 1.9 9.9 5.6l.2 13.4zm34.8-4.5c0 4-3 5.9-8.7 5.9H1099c-6.1 0-9.2-1.9-9.2-5.7v-2.6c0-4 3-5.9 9-5.9h16.1c-.3-2-1.7-3-4.5-3h-4.5c-.9 0-1.4-.5-1.4-1.6 0-.9.5-1.6 1.4-1.6h3.9c5.7 0 8.7 2 8.7 6.1v8.4zm-3.5-5.3H1098c-3 0-4.3.9-4.3 2.8v2.8c0 1.7 1.6 2.6 4.7 2.6h12.3c3 0 4.5-1.2 4.5-3.9v-4.3zm14.9 9.8c0 1.1-.6 1.7-1.9 1.7-1.2 0-1.9-.6-1.9-1.7v-23.8c0-1.1.6-1.7 1.9-1.7s1.9.6 1.9 1.7v23.8zm34.6-8.7c0 1.1-.6 1.7-1.7 1.7H1141v2.5c0 1.9 1.9 2.8 5.7 2.8h4c1.1 0 1.6.5 1.6 1.6s-.5 1.6-1.6 1.6h-3.1c-6.8 0-10.2-2-10.2-6.2v-7.8c0-4.2 3.4-6.2 10.2-6.2h8.4c5.7 0 8.5 1.9 8.5 5.4v4.6h.1zm-23.5-1.4h19.9V316c0-1.9-1.4-2.8-4.2-2.8h-9.9c-3.7 0-5.7.9-5.7 3v2.9h-.1zm-479.6 44.6c0 4-3.1 6.1-9.2 6.1H638v4.7c0 1.1-.6 1.7-1.9 1.7s-1.9-.6-1.9-1.7v-19.1c0-3.9 3.3-5.9 9.8-5.9h7.1c6.8 0 10.2 1.9 10.2 5.7.2 0 .2 8.5.2 8.5zm-3.7-8.4c0-1.9-2-2.8-5.9-2.8h-8.1c-3.7 0-5.7.9-5.7 3v11.3H653c3.3 0 4.8-.9 4.8-3v-8.5zm38.3 4.5c0 1.1-.6 1.7-1.7 1.7h-21.7v2.5c0 1.9 1.9 2.8 5.7 2.8h4c1.1 0 1.6.5 1.6 1.6s-.5 1.6-1.6 1.6h-3.1c-6.8 0-10.2-2-10.2-6.2V356c0-4.2 3.4-6.2 10.2-6.2h8.4c5.7 0 8.5 1.9 8.5 5.4v4.7l-.1-.1zm-23.4-1.4h19.9v-3.1c0-1.9-1.4-2.8-4.2-2.8h-9.9c-3.7 0-5.7.9-5.7 3v2.9h-.1zm39.6-5.9c-3.6 0-5.3 1.1-5.3 3.1v12.7c0 1.1-.6 1.7-1.9 1.7-1.2 0-1.9-.6-1.9-1.7v-12.7c0-4 3.1-6.2 9.3-6.2h1.7c.9 0 1.4.5 1.4 1.6s-.5 1.6-1.2 1.6h-2.1zm27.5 15.9c0 1.1-.6 1.7-1.9 1.7-1.2 0-1.9-.6-1.9-1.7v-23.8c0-1.1.6-1.7 1.9-1.7 1.2 0 1.9.6 1.9 1.7v23.8zm34.7-4.6c0 4-3 5.9-8.7 5.9H755c-6.1 0-9.2-1.9-9.2-5.7v-2.5c0-4 3-5.9 9-5.9H771c-.3-2-1.7-3-4.5-3H762c-.9 0-1.4-.5-1.4-1.6 0-.9.5-1.6 1.4-1.6h3.9c5.7 0 8.7 2 8.7 6.1v8.3h-.1zm-3.5-5.1h-17.1c-3 0-4.3.9-4.3 2.8v2.8c0 1.7 1.6 2.6 4.7 2.6h12.3c3 0 4.5-1.2 4.5-3.9l-.1-4.3zm57.7-4.9c0 4.2-3.6 6.2-10.9 6.2h-16.9v8.2c0 1.1-.6 1.7-2 1.7s-2-.6-2-1.7v-23.9c0-.9.5-1.2 1.2-1.2H818c7.1 0 10.7 2 10.7 5.9v4.8zm-3.9-4.2c0-2-2-3.1-6.2-3.1h-17.7v10.4h17.4c4.3 0 6.4-1.1 6.4-3.3v-4h.1zm18.1 2.9c-3.6 0-5.3 1.1-5.3 3.1v12.7c0 1.1-.6 1.7-1.9 1.7s-1.9-.6-1.9-1.7v-12.7c0-4 3.1-6.2 9.3-6.2h1.7c.9 0 1.4.5 1.4 1.6s-.5 1.6-1.2 1.6h-2.1v-.1zm35.8 11.2c0 4-3.3 6.2-9.6 6.2h-7.5c-6.5 0-9.8-2-9.8-6.2v-7.9c0-4.2 3.3-6.4 9.9-6.4h7.3c6.4 0 9.6 2 9.6 6.2v8.1h.1zm-3.9-8.2c0-2-1.7-3-5.3-3h-8.4c-3.7 0-5.7 1.1-5.7 3.3v7.9c0 2 1.9 3.1 5.7 3.1h8.4c3.4 0 5.3-1.1 5.3-3.1v-8.2zm16.2-3v15.8c0 1.1-.6 1.7-1.9 1.7-1.2 0-1.9-.6-1.9-1.7v-15.8h-1.9c-1.1 0-1.6-.5-1.6-1.6 0-.9.5-1.6 1.6-1.6h1.9v-4.8c0-1.1.6-1.7 1.9-1.7 1.2 0 1.7.6 1.7 1.7v4.8h7.5c1.1 0 1.6.5 1.6 1.6s-.5 1.6-1.6 1.6H891zm38.8 7.3c0 1.1-.6 1.7-1.7 1.7h-21.9v2.5c0 1.9 1.9 2.8 5.7 2.8h4c1.1 0 1.6.5 1.6 1.6s-.5 1.6-1.6 1.6h-3.1c-6.8 0-10.2-2-10.2-6.2V356c0-4.2 3.4-6.2 10.2-6.2h8.4c5.7 0 8.5 1.9 8.5 5.4l.1 4.6zm-23.6-1.4h19.9v-3.1c0-1.9-1.4-2.8-4.2-2.8H912c-3.7 0-5.7.9-5.7 3l-.1 2.9zm51.3-5.9h-18.6c-1.1 0-1.6-.5-1.6-1.6s.5-1.6 1.6-1.6h22c.8 0 1.2.2 1.7.6.5.3.6.8.6 1.2 0 .3-.2.6-.3.9s-.5.6-.8.8l-20 13.7h20.5c.9 0 1.6.5 1.6 1.6s-.5 1.6-1.6 1.6h-24.1c-.6 0-1.2-.2-1.7-.6-.5-.3-.6-.8-.6-1.4 0-.3.2-.6.3-.9.2-.3.5-.6.9-.8l20.1-13.5zm17-5.9c0 1.2-.9 2-2.6 2-1.6 0-2.5-.6-2.5-2 0-1.2.8-2 2.5-2s2.6.6 2.6 2zm-.6 21.8c0 1.1-.6 1.7-1.9 1.7-1.2 0-1.9-.6-1.9-1.7v-16.1c0-1.1.6-1.6 1.7-1.6 1.2 0 1.9.5 1.9 1.6v16.1h.2zm33.7-4.7c0 4-3.3 6.2-9.6 6.2h-7.5c-6.5 0-9.8-2-9.8-6.2v-7.9c0-4.2 3.3-6.4 9.9-6.4h7.3c6.4 0 9.6 2 9.6 6.2l.1 8.1zm-3.9-8.2c0-2-1.7-3-5.3-3H990c-3.7 0-5.7 1.1-5.7 3.3v7.9c0 2 1.9 3.1 5.7 3.1h8.4c3.4 0 5.3-1.1 5.3-3.1v-8.2zm38.2 12.9c0 1.1-.6 1.7-1.9 1.7-1.2 0-1.9-.6-1.9-1.7V355c0-1.7-1.7-2.5-5-2.5h-9.3c-3.4 0-5.1.8-5.1 2.5v13.4c0 1.1-.6 1.7-1.9 1.7s-1.9-.6-1.9-1.7V355c0-3.7 3.3-5.6 9.8-5.6h7.1c6.5 0 9.9 1.9 9.9 5.6l.2 13.4zm34.7-8.6c0 1.1-.6 1.7-1.7 1.7H1053v2.5c0 1.9 1.9 2.8 5.7 2.8h4c1.1 0 1.6.5 1.6 1.6s-.5 1.6-1.6 1.6h-3.1c-6.8 0-10.2-2-10.2-6.2V356c0-4.2 3.4-6.2 10.2-6.2h8.4c5.7 0 8.5 1.9 8.5 5.4v4.6h.1zm-23.5-1.4h19.9v-3.1c0-1.9-1.4-2.8-4.2-2.8h-9.9c-3.7 0-5.7.9-5.7 3l-.1 2.9zm-243.2 44.7c0 4-3.4 5.9-10.4 5.9h-6.8c-6.8 0-10.1-1.9-10.1-5.6v-8.5c0-4.2 3.4-6.2 10.1-6.2h13.7v-4.8c0-1.1.6-1.7 1.9-1.7s1.9.6 1.9 1.7v19.3l-.3-.1zm-3.7-11.3h-14.4c-3.7 0-5.6 1.2-5.6 3.6v7.3c0 2.2 1.9 3.3 5.4 3.3h8.5c4 0 6.1-1.1 6.1-3.3v-10.9zm38.4 7.3c0 1.1-.6 1.7-1.7 1.7H821v2.5c0 1.9 1.9 2.8 5.7 2.8h4c1.1 0 1.6.5 1.6 1.6s-.5 1.6-1.6 1.6h-3.1c-6.8 0-10.2-2-10.2-6.2v-7.8c0-4.2 3.4-6.2 10.2-6.2h8.4c5.7 0 8.5 1.9 8.5 5.4v4.6h.1zm-23.5-1.6H841v-3.1c0-1.9-1.4-2.8-4.2-2.8h-9.9c-3.7 0-5.7.9-5.7 3l-.1 2.9zm34.5 10.1c0 1.1-.6 1.7-1.9 1.7-1.2 0-1.9-.6-1.9-1.7v-23.8c0-1.1.6-1.7 1.9-1.7 1.2 0 1.9.6 1.9 1.7v23.8zm11.2 0c0 1.1-.6 1.7-1.9 1.7s-1.9-.6-1.9-1.7v-23.8c0-1.1.6-1.7 1.9-1.7s1.9.6 1.9 1.7v23.8zm8.7-17.2c-.2.6-.5.9-.8 1.2-.5.3-.8.3-1.2.3s-.8-.2-1.1-.3c-.3-.3-.5-.6-.5-1.1v-.5l1.1-6.4c.2-.6.3-.9.8-1.2.5-.3.9-.5 1.4-.5s.9.2 1.2.3c.3.3.5.6.5 1.1v.6l-1.4 6.5zm33.2 11.5h-20.3l-4.3 6.5c-.2.3-.5.5-.8.6-.3.2-.5.2-.8.2-.5 0-.9-.2-1.4-.5-.5-.3-.6-.8-.6-1.2 0-.3.2-.6.3-.9l15.2-22.8c.3-.5.8-.8 1.1-1.1.5-.2.9-.3 1.4-.3s.9.2 1.4.3c.5.2.8.6 1.1 1.1l15.4 22.8c.2.2.3.3.3.6v.5c0 .5-.2.9-.6 1.2-.5.3-.9.5-1.4.5-.3 0-.5 0-.8-.2-.3-.2-.6-.3-.8-.6l-4.4-6.7zm-18.3-3.3h16.1l-7.9-12.7-8.2 12.7zm69.1 9c0 1.1-.6 1.7-1.9 1.7-1.2 0-1.9-.6-1.9-1.7v-12.9c0-1.9-2-3-6.1-3-4.8 0-7.1 1.1-7.1 3.4v12.4c0 1.1-.6 1.7-1.7 1.7-1.2 0-1.9-.6-1.9-1.7v-12.4c0-2.3-2.3-3.4-7.1-3.4-4 0-6.1.9-6.1 3v12.9c0 1.1-.6 1.7-1.9 1.7-1.2 0-1.9-.6-1.9-1.7v-12.4c0-4.3 3.3-6.4 9.8-6.4 4.8 0 7.8 1.1 9.2 3.4 1.2-2.2 4.2-3.4 8.9-3.4 6.5 0 9.8 2.2 9.8 6.4v12.4h-.1zm34.9-4.8c0 4.2-3.4 6.2-10.1 6.2h-6.8c-7 0-10.4-2-10.4-6.1v-19.1c0-1.1.6-1.7 1.9-1.7 1.2 0 1.9.6 1.9 1.7v4.8h13.7c6.8 0 10.1 2 10.1 6.2v7.9l-.3.1zm-3.7-7.6c0-2.3-1.9-3.4-5.7-3.4h-14.3V403c0 2 2 3.1 6.1 3.1h8.9c1.7 0 3-.3 3.9-.8.8-.6 1.2-1.4 1.2-2.5v-7.6h-.1zm14.9-9.5c0 1.2-.9 2-2.6 2-1.6 0-2.5-.6-2.5-2 0-1.2.8-2 2.5-2 1.8.2 2.6.8 2.6 2zm-.6 21.9c0 1.1-.6 1.7-1.9 1.7s-1.9-.6-1.9-1.7v-16.1c0-1.1.6-1.6 1.7-1.6 1.2 0 1.9.5 1.9 1.6v16.1h.2zm34-8.5c0 1.1-.6 1.7-1.7 1.7h-21.9v2.5c0 1.9 1.9 2.8 5.7 2.8h4c1.1 0 1.6.5 1.6 1.6s-.5 1.6-1.6 1.6h-3.1c-6.8 0-10.2-2-10.2-6.2v-7.8c0-4.2 3.4-6.2 10.2-6.2h8.4c5.7 0 8.5 1.9 8.5 5.4v4.6zm-23.5-1.6h19.9v-3.1c0-1.9-1.4-2.8-4.2-2.8h-9.9c-3.7 0-5.7.9-5.7 3l-.1 2.9zm57.6 10.1c0 1.1-.6 1.7-1.9 1.7-1.2 0-1.9-.6-1.9-1.7v-13.4c0-1.7-1.7-2.5-5-2.5h-9.3c-3.4 0-5.1.8-5.1 2.5v13.4c0 1.1-.6 1.7-1.9 1.7s-1.9-.6-1.9-1.7v-13.4c0-3.7 3.3-5.6 9.8-5.6h7.1c6.5 0 9.9 1.9 9.9 5.6l.2 13.4zm12.5-15.8v15.8c0 1.1-.6 1.7-1.9 1.7-1.2 0-1.9-.6-1.9-1.7v-15.8h-1.9c-1.1 0-1.6-.5-1.6-1.6 0-.9.5-1.6 1.6-1.6h1.9v-4.8c0-1.1.6-1.7 1.9-1.7 1.2 0 1.7.6 1.7 1.7v4.8h7.5c1.1 0 1.6.5 1.6 1.6s-.5 1.6-1.6 1.6h-7.3zm38.6 7.3c0 1.1-.6 1.7-1.7 1.7h-21.9v2.5c0 1.9 1.9 2.8 5.7 2.8h4c1.1 0 1.6.5 1.6 1.6s-.5 1.6-1.6 1.6h-3.1c-6.8 0-10.2-2-10.2-6.2v-7.8c0-4.2 3.4-6.2 10.2-6.2h8.4c5.7 0 8.5 1.9 8.5 5.4v4.6zm-23.4-1.6h19.9v-3.1c0-1.9-1.4-2.8-4.2-2.8h-9.9c-3.7 0-5.7.9-5.7 3v2.9h-.1zM669.7 208.4l-34.9-15.2-4.3-37.9 30.6-22.7 34.9 15.2 4.3 37.7-30.6 22.9zm-32.6-16.9l32.1 14 28.1-20.8-3.9-34.8-32.1-14-28.1 20.8 3.9 34.8z"/><path class="st0" d="M604.5 215.9l-34.9-15.2-4.3-37.7 30.6-22.7 34.9 15.2 4.3 37.7-30.6 22.7zm-32.5-17l32.1 14 28.1-20.8-3.9-34.8-32.1-14-28.1 20.8c.1.1 3.9 34.8 3.9 34.8zm136.5 60.4l-34.9-15.2-4.3-37.7 30.6-22.7 34.9 15.2 4.3 37.7c0 .1-30.6 22.7-30.6 22.7zm-32.4-16.9l32.1 14 28.1-20.8-3.9-34.8-32.1-14-28.1 20.8 3.9 34.8zM696 148l-35-15.2-4.3-37.7 30.6-22.7 34.9 15.2 4.3 37.9L696 148zm-32.5-17.1l32.1 14 28.1-20.8-3.9-34.8-32.1-14-28.3 20.8 4.1 34.8z"/><path class="st0" d="M722.4 87.8l-34.6-15.1 3.6-37.7 37-8.2 19.3 32.6-25.3 28.4zm-32-16.8l31.2 13.5 22.5-25.6-17.2-29.3-33.3 7.4-3.2 34zm66 223.1h-37.7l-11.6-36 30.6-22.2 30.6 22.2-11.9 36zm-35.9-2.6h34l10.4-32.5-27.5-20-27.5 20 10.6 32.5zM630 253.8l-19.6-32.5 24.8-28.4 34.8 14.8-3.3 37.6-36.7 8.5zm-16.3-32.2l17.5 29.2 33.2-7.6 3-33.9L636 196l-22.3 25.6zm16.6-66l-30.4-22.4 11.8-36h37.9l11.5 36-30.8 22.4zm-27.4-23.3l27.5 20 27.6-19.9-10.4-32.3h-34c.1.1-10.7 32.2-10.7 32.2z"/><path class="st0" d="M562.4 140.6L537.3 112l12.1-36 37.3-7.6L611.9 97l-12.1 36c-.1-.1-37.4 7.6-37.4 7.6zm-22.2-29.2l23.1 26.2 34.3-7 11.2-33.1-23.1-26.2-34.3 7-11.2 33.1z"/><path class="st0" d="M549.7 76l-18.6-33 25.6-27.8L591 30.9l-4.3 37.6c-.1 0-37 7.5-37 7.5zm-15.5-32.5L550.9 73l33.4-6.8 3.9-33.7-30.9-14.1-23.1 25.1zm77.3 54.2l-19.3-32.9L611 31.7l38-.2 19.3 32.8-18.8 33.1-38 .3zm-16.2-32.9L613 95.1l35.1-.2 17.4-30.4-17.9-30.3-35.1.2c.1-.1-17.2 30.4-17.2 30.4zM737 192.4l-37-7.6-4.2-37.6 34.5-15.7 25.5 28-18.8 32.9zm-34.7-9.8l33.2 6.8 16.8-29.7-23-25.2-30.9 14.1c0 .2 3.9 34 3.9 34z"/><path class="st0" d="M755.9 159.8l-25.5-28.1L742 95.5l37.1-8.1 25.6 28.1-11.6 36.2c.1 0-37.2 8.1-37.2 8.1zm-22.5-28.7L757 157l34.2-7.5 10.7-33.4-23.6-25.9-34.2 7.5-10.7 33.4zm155.9 32.7l-35.7-13.4-6.4-37.6 29.5-24.2 35.7 13.4 6.4 37.6-29.5 24.2zm-33.2-15.2l32.8 12.3 27-22.4-5.7-34.5-32.8-12.3-27 22.2 5.7 34.7z"/><path class="st0" d="M824.1 173.3l-30.9-21.6 11-36.2 37.7-.8 12.3 35.7-30.1 22.9zm-27.8-22.6l27.8 19.4 27.2-20.5-11-32.1-34 .6-10 32.6zm-39.8 74.2L737 192.3l18.6-33.2 38-.6 19.6 32.6-18.5 33.2-38.2.6zm-16.4-32.8l18 30.1 35.1-.5 17.1-30.6-18-30.1-35.1.5c-.1 0-17.1 30.6-17.1 30.6z"/></svg>