<?xml version="1.0" encoding="UTF-8" standalone="no"?>
<svg
   xmlns:dc="http://purl.org/dc/elements/1.1/"
   xmlns:cc="http://creativecommons.org/ns#"
   xmlns:rdf="http://www.w3.org/1999/02/22-rdf-syntax-ns#"
   xmlns:svg="http://www.w3.org/2000/svg"
   xmlns="http://www.w3.org/2000/svg"
   xmlns:sodipodi="http://sodipodi.sourceforge.net/DTD/sodipodi-0.dtd"
   xmlns:inkscape="http://www.inkscape.org/namespaces/inkscape"
   sodipodi:docname="default.svg"
   inkscape:version="1.0rc1 (09960d6f05, 2020-04-09)"
   id="svg10314"
   version="1.1"
   viewBox="0 0 127 84.666669"
   height="320"
   width="480">
  <defs
     id="defs10308" />
  <sodipodi:namedview
     inkscape:window-maximized="1"
     inkscape:window-y="18"
     inkscape:window-x="0"
     inkscape:window-height="731"
     inkscape:window-width="1366"
     inkscape:guide-bbox="true"
     showguides="true"
     units="px"
     showgrid="false"
     inkscape:document-rotation="0"
     inkscape:current-layer="layer1"
     inkscape:document-units="mm"
     inkscape:cy="213.0127"
     inkscape:cx="-195.70063"
     inkscape:zoom="0.35355339"
     inkscape:pageshadow="2"
     inkscape:pageopacity="0.0"
     borderopacity="1.0"
     bordercolor="#666666"
     pagecolor="#ffffff"
     id="base" />
  <metadata
     id="metadata10311">
    <rdf:RDF>
      <cc:Work
         rdf:about="">
        <dc:format>image/svg+xml</dc:format>
        <dc:type
           rdf:resource="http://purl.org/dc/dcmitype/StillImage" />
        <dc:title></dc:title>
      </cc:Work>
    </rdf:RDF>
  </metadata>
  <g
     id="layer1"
     inkscape:groupmode="layer"
     inkscape:label="Layer 1">
    <rect
       y="0"
       x="-3.5527137e-15"
       height="84.666664"
       width="127"
       id="rect10877"
       style="color:#000000;overflow:visible;fill:#661224;fill-opacity:1;stroke-width:0.562904" />
    <path
       inkscape:connector-curvature="0"
       fill="currentColor"
       d="m 38.447898,36.896251 c -2.549803,0.172283 -6.187456,2.692553 -8.028434,3.519515 -1.432418,0.644835 -2.667939,1.201066 -3.745945,1.201066 -1.112462,0 -1.279824,-0.797429 -1.048471,-2.554725 0.05415,-0.393793 0.575921,-3.89854 -2.101865,-3.745946 -1.235522,0.07383 -3.165102,1.220754 -8.343466,6.202222 l 2.042795,-5.104528 c 1.49641,-3.7361 -2.618716,-7.457434 -6.384352,-5.060226 l -2.7023958,1.816365 c -0.3642567,0.231354 -0.4725497,0.718671 -0.241198,1.087851 l 0.8466537,1.329047 c 0.2313517,0.369181 0.7186687,0.477473 1.0878484,0.241198 L 12.68406,33.913277 c 0.905722,-0.57592 2.003417,0.354412 1.609625,1.33397 L 9.4598886,47.33666 c -0.334723,0.831885 0.1329047,2.160932 1.4619524,2.160932 0.408559,0 0.812196,-0.157517 1.112462,-0.462705 2.077253,-2.077252 7.614952,-7.418055 10.396108,-9.638057 -0.108293,1.402883 -0.103371,2.899293 1.014014,4.12497 0.753127,0.826964 1.836055,1.245368 3.224171,1.245368 1.752375,0 3.347232,-0.718671 5.035615,-1.476721 1.62439,-0.728515 4.873176,-3.081421 6.812602,-3.238938 0.418402,-0.03446 0.748201,-0.359336 0.748201,-0.77774 v -1.58009 c 0.0098,-0.447938 -0.36918,-0.826963 -0.817116,-0.797428 z"
       id="path9684"
       style="fill:#74a848;fill-opacity:1;stroke-width:0.0492239" />
    <text
       id="text10907"
       y="46.352581"
       x="39.044647"
       style="font-style:italic;font-variant:normal;font-weight:bold;font-stretch:normal;font-size:16.9333px;line-height:125%;font-family:sans-serif;-inkscape-font-specification:'sans-serif Bold Italic';letter-spacing:0px;word-spacing:0px;writing-mode:lr-tb;fill:#74a848;fill-opacity:1;stroke:none;stroke-width:0.264583px;stroke-linecap:butt;stroke-linejoin:miter;stroke-opacity:1"
       xml:space="preserve"><tspan
         style="font-style:italic;font-variant:normal;font-weight:bold;font-stretch:normal;font-family:sans-serif;-inkscape-font-specification:'sans-serif Bold Italic';fill:#74a848;fill-opacity:1;stroke:none;stroke-width:0.264583px"
         y="46.352581"
         x="39.044647"
         id="tspan10905"
         sodipodi:role="line">P</tspan></text>
    <text
       id="text10911"
       y="45.886311"
       x="49.541458"
       style="font-style:italic;font-variant:normal;font-weight:bold;font-stretch:normal;font-size:16.9333px;line-height:125%;font-family:sans-serif;-inkscape-font-specification:'sans-serif Bold Italic';letter-spacing:0px;word-spacing:0px;writing-mode:lr-tb;fill:#fcfdfb;fill-opacity:1;stroke:none;stroke-width:0.264583px;stroke-linecap:butt;stroke-linejoin:miter;stroke-opacity:1"
       xml:space="preserve"><tspan
         style="font-style:italic;font-variant:normal;font-weight:bold;font-stretch:normal;font-family:sans-serif;-inkscape-font-specification:'sans-serif Bold Italic';fill:#fcfdfb;fill-opacity:1;stroke:none;stroke-width:0.264583px"
         y="45.886311"
         x="49.541458"
         id="tspan10909"
         sodipodi:role="line">artecipo!</tspan></text>
  </g>
</svg>
